<svg width="178" height="182" viewBox="0 0 178 182" fill="none" xmlns="http://www.w3.org/2000/svg">
<g id="box 2">
<path id="Polygon 3" d="M131.049 39.7075C133.736 39.6524 135.058 42.971 133.114 44.8928L42.3286 134.665C40.4378 136.534 37.3054 135.219 37.3054 132.555L37.3054 44.6442C37.3054 42.9773 38.6275 41.6028 40.2633 41.5692L131.049 39.7075Z" fill="white"/>
<path id="Polygon 4" d="M47.5556 143.152C44.8686 143.207 43.5468 139.889 45.4903 137.967L136.276 48.1948C138.167 46.3251 141.299 47.6411 141.299 50.3051L141.299 138.215C141.299 139.882 139.977 141.257 138.341 141.29L47.5556 143.152Z" fill="white"/>
<path id="&#208;&#186;&#208;&#176;&#209;&#128;&#208;&#176;&#208;&#189;&#208;&#180;&#208;&#176;&#209;&#136;" d="M127.329 95.4185C125.773 95.5897 124.216 95.9263 123.841 96.1175C123.475 96.2699 122.25 97.5624 121.177 98.895C120.057 100.256 117.779 102.804 116.119 104.52C114.411 106.266 110.038 111.119 106.397 115.337C100.237 122.412 99.6872 122.971 98.7283 122.72C98.153 122.569 97.3557 122.649 96.9223 122.908C96.2483 123.311 96.1993 123.505 96.4834 124.324C96.7674 125.143 96.6124 125.434 95.0309 126.84C93.1214 128.574 92.6946 129.455 93.3908 130.424C94.5065 131.999 99.0091 136.035 99.6807 136.128C100.679 136.224 102.183 134.963 102.901 133.414C103.696 131.719 102.804 131.692 101.835 133.424C100.711 135.447 99.9035 135.731 98.5169 134.581C96.834 133.147 93.7784 129.698 93.8665 129.348C93.9742 128.921 97.1951 126.042 97.4636 126.112C97.617 126.152 98.9743 127.419 100.503 128.978C104.22 132.725 106.157 133.15 106.622 130.334C106.789 129.509 108.199 127.81 111.75 124.272C114.48 121.553 119.76 115.862 123.487 111.625C130.265 103.885 130.265 103.885 131.259 100.752C131.893 98.7255 132.121 97.3369 131.931 96.956C131.722 96.4874 131.829 96.2258 132.214 95.9957C133.273 95.3631 130.298 94.9969 127.329 95.4185ZM127.813 98.6901C128.471 99.6488 129.235 100.511 129.541 100.592C130.462 100.833 129.762 102.636 128.414 103.441L127.21 104.16L126.236 102.994C125.387 101.985 125.34 101.683 125.778 100.598C126.428 99.1546 126.122 98.9088 124.841 99.7729C122.924 101.05 122.478 99.8982 124.092 97.7145C125.271 96.1202 126.345 96.4018 127.813 98.6901ZM123.335 101.364L124.199 101.343L122.923 103.16C122.227 104.136 121.011 105.39 120.288 105.986C117.705 107.957 116.259 109.316 114.51 111.547C109.815 117.351 102.249 125.298 101.559 125.117C101.405 125.077 101.004 124.723 100.689 124.351C100.192 123.724 100.502 123.309 104.653 118.687C107.115 115.898 110.88 111.671 113.033 109.298C121.654 99.5993 121.76 99.503 122.187 100.567C122.348 101.064 122.807 101.35 123.335 101.364ZM126.947 104.877C127.714 105.078 127.328 105.639 122.345 111.45C117.942 116.585 113.184 121.668 106.497 128.398C106.159 128.765 105.824 128.635 104.887 127.81C104.246 127.27 103.644 126.739 103.587 126.642C103.53 126.544 104.591 125.415 105.903 124.104C110.457 119.671 114.742 115.167 117.243 112.222C118.585 110.629 120.785 108.392 122.097 107.247C124.661 105.023 125.068 104.384 124.147 104.143C123.534 103.982 123.507 103.602 124.145 102.694C124.512 102.211 124.656 102.29 125.322 103.375C125.761 104.069 126.487 104.756 126.947 104.877ZM116.393 111.213C114.819 113.076 113.458 114.582 113.381 114.562C113.113 114.491 117.122 109.459 118.193 108.457C119.736 107.041 119.194 107.892 116.393 111.213ZM100.666 125.09C101.076 125.735 102.403 127.118 103.656 128.15C105.683 129.84 105.893 130.143 105.382 130.712C104.494 131.638 103.737 131.233 100.9 128.213C99.4769 126.723 98.034 125.31 97.7182 125.103C97.0865 124.689 97.1305 123.542 97.7662 123.129C98.344 122.784 99.875 123.848 100.666 125.09Z" fill="#1D5EDC"/>
<path id="&#208;&#186;&#208;&#184;&#209;&#129;&#209;&#130;&#209;&#140;" d="M53.8503 93.319C55.576 92.2522 57.2923 92.2237 61.1018 93.2407C65.4952 94.4179 67.1335 94.2357 69.1342 92.3683C70.405 91.153 71.3066 89.0777 71.0393 87.934C70.9629 87.6072 71.2889 86.6647 71.8026 85.806C72.2669 84.9162 72.5945 83.8006 72.4799 83.3104C72.3478 82.5655 72.9108 81.738 74.9227 79.7383C82.7603 71.9201 89.8631 64.1941 90.9716 62.2844C93.1376 58.607 91.7901 56.258 88.0523 57.1661C85.5074 57.7845 84.348 58.7568 81.1656 62.9403C79.65 64.9057 76.0811 69.0535 73.2454 72.2031C68.5267 77.3641 67.9366 77.896 66.4972 78.0299C65.5635 78.1704 64.7571 78.4959 64.4358 78.9192C64.1241 79.3835 62.8597 79.9065 60.9112 80.3799C58.3266 81.0079 57.649 81.3452 56.3178 82.6615C53.4455 85.4746 52.0319 89.3146 52.7289 92.2965C53.0344 93.6036 53.1521 93.7477 53.8503 93.319ZM53.7147 88.6036C54.9263 85.158 58.1517 81.6979 60.7363 81.07C62.4462 80.6545 65.3888 81.0187 65.1948 81.627C65.1233 81.8603 64.5539 82.3008 63.9161 82.6284C63.2688 82.9152 62.8584 83.3171 63.0255 83.4923C63.1829 83.6267 64.0673 83.455 64.9437 83.0694C65.8503 82.6333 66.6662 82.3487 66.7744 82.452C67.1689 82.7014 66.49 85.3701 65.8188 86.0943C65.2971 86.7391 65.286 86.8713 65.803 86.7457C66.1608 86.6588 66.7731 85.8625 67.1675 85.0328L67.8465 83.4433L68.8456 84.8409C70.3044 86.947 69.8068 90.3918 67.7599 91.882C66.3619 92.9123 64.6552 92.9817 60.6563 92.0539C57.7757 91.4156 57.0615 91.4165 55.3501 92.0049L53.3301 92.7116L53.3236 91.2455C53.341 90.421 53.4904 89.2624 53.7147 88.6036ZM65.8722 79.1314C66.9887 78.5148 68.7066 79.3924 70.3944 81.3997C71.7387 83.0157 72.0267 84.068 71.3937 84.9557C71.012 85.4801 70.8339 85.437 70.2564 84.5845C69.9239 84.0609 69.5819 83.4965 69.5437 83.3331C69.5055 83.1697 68.4906 82.4235 67.3374 81.6245C66.1443 80.8352 65.0897 80.0986 65.0515 79.9352C64.9735 79.7814 65.3044 79.3989 65.8722 79.1314ZM70.0441 77.384C70.8361 76.4577 70.8759 76.448 72.3743 77.4653C74.2466 78.8234 74.323 79.1502 73.1175 80.8245L72.133 82.186L70.8175 80.6926C69.109 78.7767 69.0612 78.5724 70.0441 77.384ZM75.3323 71.7824C77.3966 69.4678 80.3547 65.9432 81.891 63.8864C84.7824 60.0758 86.6305 58.634 89.0338 58.309C91.1095 58.0205 91.1589 59.1309 89.206 62.2817C88.2598 63.8067 86.9143 65.6013 86.2145 66.203C85.5243 66.8455 83.1609 69.3191 80.9963 71.7444L77.0585 76.1114L75.5982 75.2575C74.7695 74.7682 73.9296 74.411 73.7308 74.4593C73.0548 74.6236 73.5639 75.3632 74.7107 75.7753C76.0453 76.2712 76.2489 76.7829 75.4967 77.6995C75.0053 78.2938 74.6983 78.2388 73.2889 77.2431C72.3727 76.5592 71.6536 76 71.6043 75.9689C71.5948 75.928 73.2981 74.0465 75.3323 71.7824Z" fill="#1D5EDC"/>
</g>
</svg>
