<svg width="210" height="210" viewBox="35 35 210 210" fill="none" xmlns="http://www.w3.org/2000/svg">
<g opacity="0.2">
<path d="M130.444 38.8479C133.131 38.7928 134.453 42.1114 132.51 44.0332L41.7241 133.805C39.8333 135.675 36.7009 134.359 36.7009 131.695L36.7009 43.7846C36.7009 42.1176 38.0231 40.7432 39.6588 40.7096L130.444 38.8479Z" fill="white"/>
<path d="M46.9508 142.292C44.2638 142.348 42.942 139.029 44.8855 137.107L135.671 47.3352C137.562 45.4655 140.694 46.7815 140.694 49.4455L140.694 137.356C140.694 139.023 139.372 140.397 137.736 140.431L46.9508 142.292Z" fill="white"/>
<path d="M126.242 92.398C124.686 92.5692 123.129 92.9058 122.754 93.097C122.388 93.2494 121.162 94.5419 120.09 95.8745C118.97 97.236 116.691 99.7834 115.032 101.5C113.324 103.245 108.951 108.099 105.31 112.317C99.1502 119.391 98.6002 119.95 97.6413 119.699C97.0659 119.548 96.2686 119.629 95.8353 119.888C95.1613 120.29 95.1123 120.484 95.3963 121.304C95.6804 122.123 95.5254 122.413 93.9439 123.819C92.0344 125.553 91.6076 126.434 92.3038 127.403C93.4195 128.978 97.922 133.014 98.5937 133.108C99.5917 133.204 101.096 131.943 101.814 130.393C102.609 128.698 101.717 128.671 100.748 130.403C99.6243 132.426 98.8164 132.711 97.4298 131.561C95.747 130.127 92.6914 126.677 92.7795 126.328C92.8872 125.901 96.1081 123.021 96.3766 123.092C96.53 123.132 97.8872 124.398 99.4158 125.958C103.133 129.705 105.07 130.13 105.535 127.314C105.702 126.489 107.112 124.789 110.663 121.251C113.393 118.533 118.673 112.841 122.4 108.604C129.178 100.864 129.178 100.864 130.172 97.7319C130.806 95.705 131.034 94.3164 130.844 93.9355C130.635 93.4669 130.742 93.2053 131.127 92.9752C132.186 92.3426 129.211 91.9764 126.242 92.398ZM126.726 95.6696C127.384 96.6283 128.147 97.4907 128.454 97.5711C129.375 97.8125 128.675 99.6152 127.327 100.42C126.633 100.835 125.739 100.679 125.216 100.053L125.149 99.9735C124.3 98.9646 124.253 98.6627 124.691 97.5774C125.341 96.1341 125.035 95.8883 123.754 96.7524C121.837 98.0291 121.391 96.8777 123.005 94.694C124.184 93.0997 125.258 93.3813 126.726 95.6696ZM122.248 98.3438C122.604 98.3349 122.82 98.7381 122.616 99.0292L121.836 100.139C121.14 101.115 119.924 102.369 119.201 102.966C116.618 104.937 115.172 106.295 113.423 108.526C108.728 114.33 101.162 122.277 100.472 122.096C100.318 122.056 99.9166 121.703 99.6016 121.33C99.1054 120.704 99.4147 120.288 103.566 115.666C106.028 112.877 109.793 108.651 111.946 106.277C120.567 96.5788 120.673 96.4825 121.1 97.5462C121.261 98.0435 121.72 98.3295 122.248 98.3438ZM125.86 101.857C126.627 102.058 126.241 102.618 121.258 108.429C116.855 113.564 112.096 118.648 105.41 125.377C105.072 125.744 104.737 125.615 103.8 124.79C103.159 124.249 102.557 123.719 102.5 123.621C102.443 123.524 103.504 122.395 104.816 121.084C109.37 116.65 113.655 112.146 116.156 109.202C117.498 107.609 119.698 105.372 121.01 104.226C123.574 102.002 123.981 101.364 123.06 101.122C122.447 100.961 122.42 100.582 123.058 99.6734C123.425 99.1903 123.569 99.2694 124.235 100.355C124.674 101.049 125.4 101.736 125.86 101.857ZM115.306 108.193C113.732 110.056 112.371 111.561 112.294 111.541C112.026 111.471 116.035 106.439 117.106 105.437C118.649 104.021 118.107 104.872 115.306 108.193ZM99.5788 122.069C99.9885 122.715 101.316 124.097 102.569 125.129C104.596 126.819 104.806 127.123 104.294 127.692C103.407 128.618 102.65 128.212 99.8132 125.193C98.3899 123.702 96.947 122.289 96.6311 122.082C95.9995 121.669 96.0435 120.521 96.6792 120.109C97.2569 119.764 98.788 120.827 99.5788 122.069Z" fill="#1D5EDC"/>
<path d="M52.7633 90.2985C54.489 89.2317 56.2052 89.2032 60.0148 90.2202C64.4081 91.3974 66.0464 91.2152 68.0472 89.3477C69.3179 88.1325 70.2196 86.0572 69.9523 84.9135C69.8759 84.5867 70.2019 83.6442 70.7155 82.7855C71.1799 81.8957 71.5074 80.7801 71.3929 80.2899C71.2608 79.545 71.8238 78.7175 73.8357 76.7178C81.6733 68.8996 88.7761 61.1736 89.8845 59.2639C92.0505 55.5865 90.7031 53.2375 86.9653 54.1456C84.4204 54.764 83.261 55.7363 80.0786 59.9198C78.563 61.8852 74.9941 66.033 72.1584 69.1826C67.4396 74.3436 66.8496 74.8755 65.4101 75.0094C64.4765 75.1499 63.6701 75.4753 63.3488 75.8987C63.0371 76.363 61.7726 76.886 59.8242 77.3594C57.2396 77.9874 56.562 78.3247 55.2308 79.641C52.3585 82.4541 50.9448 86.2941 51.6418 89.276C51.9474 90.5831 52.0651 90.7272 52.7633 90.2985ZM52.6276 85.5831C53.8393 82.1375 57.0647 78.6774 59.6493 78.0494C61.3591 77.634 64.3018 77.9982 64.1078 78.6065C64.0362 78.8398 63.4669 79.2803 62.8291 79.6079C62.1817 79.8947 61.7714 80.2966 61.9384 80.4718C62.0959 80.6062 62.9803 80.4345 63.8566 80.0489C64.4811 79.7485 65.0626 79.52 65.3994 79.4406C65.5907 79.3955 65.7756 79.5005 65.7965 79.6961C65.8764 80.4447 65.3013 82.4593 64.7318 83.0738C64.2101 83.7186 64.199 83.8508 64.7159 83.7252C65.0738 83.6382 65.6861 82.842 66.0805 82.0123C66.3786 81.3145 67.3205 81.2076 67.7585 81.8204C69.2173 83.9265 68.7198 87.3713 66.6729 88.8615C65.2748 89.8918 63.5681 89.9612 59.5693 89.0334C56.6887 88.3951 55.9745 88.3959 54.2631 88.9844L53.6256 89.2075C52.9461 89.4451 52.2398 88.9455 52.2366 88.225C52.254 87.4005 52.4034 86.2419 52.6276 85.5831ZM64.7851 76.1109C65.9017 75.4943 67.6196 76.3719 69.3074 78.3792C70.6516 79.9952 70.9396 81.0475 70.3067 81.9352C69.925 82.4596 69.7468 82.4165 69.1694 81.564C68.8369 81.0404 68.4948 80.476 68.4566 80.3126C68.4185 80.1492 67.4036 79.403 66.2503 78.604C65.3876 78.0332 64.5972 77.49 64.2113 77.1711C64.0274 77.0193 63.9356 76.7756 64.0952 76.5957C64.236 76.4371 64.4753 76.2569 64.7851 76.1109ZM68.9571 74.3634C69.7491 73.4372 69.7889 73.4275 71.2873 74.4448C73.1596 75.8029 73.2359 76.1297 72.0304 77.8039C71.5254 78.5024 70.5094 78.5564 69.9442 77.9147L69.7304 77.6721C68.0219 75.7562 67.9742 75.5519 68.9571 74.3634ZM74.2452 68.7619C76.3096 66.4473 79.2677 62.9227 80.804 60.8659C83.6953 57.0553 85.5434 55.6134 87.9468 55.2885C90.0225 55 90.0719 56.1104 88.119 59.2612C87.1727 60.7862 85.8273 62.5808 85.1275 63.1825C84.4372 63.825 82.0739 66.2986 79.9093 68.7239L77.1139 71.824C76.4483 72.5621 75.362 72.7344 74.5112 72.237C73.6825 71.7476 72.8426 71.3905 72.6438 71.4388C71.9678 71.6031 72.4768 72.3427 73.6237 72.7548C74.9583 73.2507 75.1619 73.7624 74.4097 74.679C73.9182 75.2732 73.6112 75.2183 72.2019 74.2226C71.9439 74.03 71.7015 73.8474 71.4854 73.6836C70.8642 73.2129 70.7942 72.6086 71.3173 72.0219C72.0051 71.2504 73.07 70.07 74.2452 68.7619Z" fill="#1D5EDC"/>
<path d="M233.049 137.708C235.736 137.652 237.058 140.971 235.114 142.893L144.329 232.665C142.438 234.534 139.305 233.219 139.305 230.555L139.305 142.644C139.305 140.977 140.628 139.603 142.263 139.569L233.049 137.708Z" fill="white"/>
<path d="M149.556 241.152C146.869 241.207 145.547 237.889 147.49 235.967L238.276 146.195C240.167 144.325 243.299 145.641 243.299 148.305L243.299 236.215C243.299 237.882 241.977 239.257 240.341 239.29L149.556 241.152Z" fill="white"/>
<path d="M229.329 193.418C227.773 193.59 226.216 193.926 225.841 194.118C225.475 194.27 224.25 195.562 223.177 196.895C222.057 198.256 219.779 200.804 218.119 202.52C216.411 204.266 212.038 209.119 208.397 213.337C202.237 220.412 201.687 220.971 200.728 220.72C200.153 220.569 199.356 220.649 198.922 220.908C198.248 221.311 198.199 221.505 198.483 222.324C198.767 223.143 198.612 223.434 197.031 224.84C195.121 226.574 194.695 227.455 195.391 228.424C196.506 229.999 201.009 234.035 201.681 234.128C202.679 234.224 204.183 232.963 204.901 231.414C205.696 229.719 204.804 229.692 203.835 231.424C202.711 233.447 201.903 233.731 200.517 232.581C198.834 231.147 195.778 227.698 195.867 227.348C195.974 226.921 199.195 224.042 199.464 224.112C199.617 224.152 200.974 225.419 202.503 226.978C206.22 230.725 208.157 231.15 208.622 228.334C208.789 227.509 210.199 225.81 213.75 222.272C216.48 219.553 221.76 213.862 225.487 209.625C232.265 201.885 232.265 201.885 233.259 198.752C233.893 196.726 234.121 195.337 233.931 194.956C233.722 194.487 233.829 194.226 234.214 193.996C235.273 193.363 232.298 192.997 229.329 193.418ZM229.813 196.69C230.471 197.649 231.235 198.511 231.541 198.592C232.462 198.833 231.762 200.636 230.414 201.441L229.21 202.16L228.236 200.994C227.387 199.985 227.34 199.683 227.778 198.598C228.428 197.155 228.122 196.909 226.841 197.773C224.924 199.05 224.478 197.898 226.092 195.715C227.271 194.12 228.345 194.402 229.813 196.69ZM225.335 199.364L226.199 199.343L224.923 201.16C224.227 202.136 223.011 203.39 222.288 203.986C219.705 205.957 218.259 207.316 216.51 209.547C211.815 215.351 204.249 223.298 203.559 223.117C203.405 223.077 203.004 222.723 202.689 222.351C202.192 221.724 202.502 221.309 206.653 216.687C209.115 213.898 212.88 209.671 215.033 207.298C223.654 197.599 223.76 197.503 224.187 198.567C224.348 199.064 224.807 199.35 225.335 199.364ZM228.947 202.877C229.714 203.078 229.328 203.639 224.345 209.45C219.942 214.585 215.184 219.668 208.497 226.398C208.159 226.765 207.824 226.635 206.887 225.81C206.246 225.27 205.644 224.739 205.587 224.642C205.53 224.544 206.591 223.415 207.903 222.104C212.457 217.671 216.742 213.167 219.243 210.222C220.585 208.629 222.785 206.392 224.097 205.247C226.661 203.023 227.068 202.384 226.147 202.143C225.534 201.982 225.507 201.602 226.145 200.694C226.512 200.211 226.656 200.29 227.322 201.375C227.761 202.069 228.487 202.756 228.947 202.877ZM218.393 209.213C216.819 211.076 215.458 212.582 215.381 212.562C215.113 212.491 219.122 207.459 220.193 206.457C221.736 205.041 221.194 205.892 218.393 209.213ZM202.666 223.09C203.076 223.735 204.403 225.118 205.656 226.15C207.683 227.84 207.893 228.143 207.382 228.712C206.494 229.638 205.737 229.233 202.9 226.213C201.477 224.723 200.034 223.31 199.718 223.103C199.086 222.689 199.13 221.542 199.766 221.129C200.344 220.784 201.875 221.848 202.666 223.09Z" fill="#1D5EDC"/>
<path d="M155.85 191.319C157.576 190.252 159.292 190.224 163.102 191.241C167.495 192.418 169.133 192.236 171.134 190.368C172.405 189.153 173.307 187.078 173.039 185.934C172.963 185.607 173.289 184.665 173.803 183.806C174.267 182.916 174.594 181.801 174.48 181.31C174.348 180.565 174.911 179.738 176.923 177.738C184.76 169.92 191.863 162.194 192.972 160.284C195.138 156.607 193.79 154.258 190.052 155.166C187.507 155.784 186.348 156.757 183.166 160.94C181.65 162.906 178.081 167.054 175.245 170.203C170.527 175.364 169.937 175.896 168.497 176.03C167.563 176.17 166.757 176.496 166.436 176.919C166.124 177.383 164.86 177.907 162.911 178.38C160.327 179.008 159.649 179.345 158.318 180.662C155.446 183.475 154.032 187.315 154.729 190.296C155.034 191.604 155.152 191.748 155.85 191.319ZM155.715 186.604C156.926 183.158 160.152 179.698 162.736 179.07C164.446 178.655 167.389 179.019 167.195 179.627C167.123 179.86 166.554 180.301 165.916 180.628C165.269 180.915 164.858 181.317 165.025 181.492C165.183 181.627 166.067 181.455 166.944 181.069C167.85 180.633 168.666 180.349 168.774 180.452C169.169 180.701 168.49 183.37 167.819 184.094C167.297 184.739 167.286 184.871 167.803 184.746C168.161 184.659 168.773 183.862 169.168 183.033L169.847 181.443L170.846 182.841C172.304 184.947 171.807 188.392 169.76 189.882C168.362 190.912 166.655 190.982 162.656 190.054C159.776 189.416 159.062 189.416 157.35 190.005L155.33 190.712L155.324 189.245C155.341 188.421 155.49 187.262 155.715 186.604ZM167.872 177.131C168.989 176.515 170.707 177.392 172.394 179.4C173.739 181.016 174.027 182.068 173.394 182.956C173.012 183.48 172.834 183.437 172.256 182.584C171.924 182.061 171.582 181.497 171.544 181.333C171.505 181.17 170.491 180.423 169.337 179.624C168.144 178.835 167.09 178.099 167.052 177.935C166.974 177.781 167.304 177.399 167.872 177.131ZM172.044 175.384C172.836 174.458 172.876 174.448 174.374 175.465C176.247 176.823 176.323 177.15 175.117 178.824L174.133 180.186L172.817 178.693C171.109 176.777 171.061 176.572 172.044 175.384ZM177.332 169.782C179.397 167.468 182.355 163.943 183.891 161.886C186.782 158.076 188.63 156.634 191.034 156.309C193.11 156.021 193.159 157.131 191.206 160.282C190.26 161.807 188.914 163.601 188.215 164.203C187.524 164.846 185.161 167.319 182.996 169.744L179.058 174.111L177.598 173.257C176.769 172.768 175.93 172.411 175.731 172.459C175.055 172.624 175.564 173.363 176.711 173.775C178.045 174.271 178.249 174.783 177.497 175.7C177.005 176.294 176.698 176.239 175.289 175.243C174.373 174.559 173.654 174 173.604 173.969C173.595 173.928 175.298 172.046 177.332 169.782Z" fill="#1D5EDC"/>
</g>
</svg>
