<svg width="210" height="210" viewBox="35 35 210 210" fill="none" xmlns="http://www.w3.org/2000/svg">
<g opacity="0.2">
<path d="M237.344 140.164C240.031 140.109 241.353 143.427 239.409 145.349L146.816 236.908C144.925 238.778 141.793 237.462 141.793 234.798L141.793 145.137C141.793 143.47 143.115 142.096 144.751 142.062L237.344 140.164Z" fill="#739EF2"/>
<path d="M152.093 245.461C149.406 245.516 148.084 242.198 150.028 240.276L242.62 148.717C244.511 146.847 247.644 148.163 247.644 150.827L247.644 240.487C247.644 242.154 246.321 243.529 244.686 243.562L152.093 245.461Z" fill="#739EF2"/>
<path d="M228.538 194.076C227.095 194.235 225.651 194.549 225.303 194.727C224.964 194.868 223.827 196.072 222.832 197.312C221.793 198.58 219.68 200.952 218.14 202.55C216.556 204.175 212.5 208.693 209.124 212.62C203.41 219.206 202.9 219.727 202.011 219.493C201.477 219.353 200.738 219.428 200.336 219.669C199.711 220.043 199.665 220.224 199.929 220.987C200.192 221.75 200.048 222.02 198.581 223.329C196.81 224.943 196.415 225.764 197.06 226.665C198.095 228.132 202.271 231.889 202.894 231.976C203.82 232.066 205.215 230.892 205.881 229.449C206.619 227.871 205.791 227.846 204.892 229.459C203.85 231.342 203.101 231.607 201.815 230.536C200.254 229.201 197.42 225.99 197.501 225.664C197.601 225.267 200.589 222.586 200.838 222.651C200.98 222.689 202.239 223.868 203.657 225.32C207.104 228.808 208.901 229.204 209.332 226.582C209.487 225.814 210.795 224.232 214.088 220.938C216.621 218.407 221.518 213.108 224.974 209.164C231.261 201.958 231.261 201.958 232.183 199.042C232.771 197.155 232.982 195.862 232.806 195.507C232.612 195.071 232.711 194.827 233.069 194.613C234.051 194.024 231.292 193.683 228.538 194.076ZM228.987 197.122C229.597 198.014 230.305 198.817 230.59 198.892C231.444 199.117 230.794 200.795 229.544 201.545L228.428 202.214L227.525 201.129C226.737 200.189 226.693 199.908 227.099 198.898C227.702 197.554 227.418 197.325 226.23 198.13C224.452 199.318 224.039 198.246 225.536 196.213C226.63 194.729 227.626 194.991 228.987 197.122ZM224.834 199.611L225.635 199.591L224.451 201.283C223.806 202.192 222.678 203.359 222.008 203.914C219.612 205.749 218.27 207.014 216.648 209.091C212.294 214.495 205.276 221.893 204.636 221.725C204.494 221.687 204.121 221.358 203.829 221.012C203.369 220.428 203.656 220.041 207.506 215.738C209.789 213.142 213.281 209.207 215.278 206.997C223.274 197.968 223.373 197.878 223.769 198.869C223.918 199.332 224.344 199.598 224.834 199.611ZM228.184 202.882C228.895 203.069 228.537 203.591 223.915 209.001C219.831 213.782 215.418 218.514 209.216 224.78C208.903 225.121 208.592 225.001 207.723 224.232C207.129 223.729 206.57 223.236 206.517 223.145C206.464 223.054 207.449 222.003 208.666 220.782C212.889 216.654 216.863 212.461 219.183 209.72C220.428 208.237 222.469 206.154 223.685 205.088C226.064 203.017 226.441 202.423 225.587 202.198C225.018 202.048 224.993 201.695 225.585 200.849C225.925 200.399 226.058 200.473 226.677 201.483C227.083 202.13 227.757 202.769 228.184 202.882ZM218.395 208.781C216.935 210.515 215.673 211.917 215.602 211.898C215.352 211.832 219.071 207.148 220.064 206.215C221.495 204.897 220.993 205.689 218.395 208.781ZM203.808 221.7C204.188 222.3 205.419 223.588 206.581 224.548C208.462 226.122 208.656 226.404 208.182 226.934C207.358 227.796 206.656 227.419 204.025 224.608C202.705 223.22 201.367 221.905 201.074 221.712C200.488 221.327 200.529 220.259 201.118 219.875C201.654 219.553 203.074 220.543 203.808 221.7Z" fill="#9C0D13"/>
<path d="M160.386 192.121C161.987 191.128 163.579 191.101 167.112 192.048C171.187 193.144 172.706 192.974 174.562 191.236C175.741 190.104 176.577 188.172 176.329 187.108C176.258 186.803 176.561 185.926 177.037 185.126C177.468 184.298 177.771 183.259 177.665 182.803C177.543 182.109 178.065 181.339 179.931 179.477C187.2 172.199 193.788 165.006 194.816 163.228C196.825 159.804 195.575 157.617 192.109 158.463C189.748 159.038 188.673 159.944 185.721 163.838C184.316 165.668 181.005 169.53 178.375 172.462C173.999 177.267 173.451 177.762 172.116 177.887C171.25 178.018 170.502 178.321 170.204 178.715C169.915 179.147 168.742 179.634 166.935 180.075C164.538 180.659 163.91 180.973 162.675 182.199C160.011 184.818 158.7 188.393 159.346 191.169C159.629 192.386 159.739 192.52 160.386 192.121ZM160.26 187.731C161.384 184.523 164.376 181.302 166.773 180.717C168.359 180.33 171.088 180.669 170.908 181.236C170.842 181.453 170.314 181.863 169.722 182.168C169.122 182.435 168.741 182.809 168.896 182.972C169.042 183.097 169.863 182.938 170.675 182.579C171.516 182.173 172.273 181.908 172.373 182.004C172.739 182.236 172.11 184.721 171.487 185.395C171.003 185.995 170.993 186.118 171.472 186.001C171.804 185.92 172.372 185.179 172.738 184.407L173.368 182.927L174.294 184.228C175.647 186.189 175.186 189.396 173.287 190.783C171.991 191.742 170.408 191.807 166.699 190.943C164.027 190.349 163.365 190.35 161.777 190.898L159.904 191.555L159.898 190.191C159.914 189.423 160.052 188.344 160.26 187.731ZM171.537 178.912C172.572 178.338 174.166 179.155 175.731 181.024C176.978 182.529 177.245 183.508 176.658 184.335C176.304 184.823 176.139 184.783 175.603 183.989C175.295 183.502 174.977 182.976 174.942 182.824C174.906 182.672 173.965 181.977 172.896 181.233C171.789 180.499 170.811 179.813 170.775 179.661C170.703 179.518 171.01 179.161 171.537 178.912ZM175.406 177.285C176.141 176.423 176.178 176.414 177.567 177.361C179.304 178.626 179.375 178.93 178.257 180.489L177.344 181.756L176.123 180.366C174.539 178.582 174.494 178.392 175.406 177.285ZM180.311 172.07C182.225 169.916 184.969 166.634 186.394 164.719C189.076 161.172 190.79 159.829 193.019 159.527C194.944 159.258 194.99 160.292 193.179 163.225C192.301 164.645 191.053 166.316 190.404 166.876C189.764 167.474 187.572 169.777 185.564 172.035L181.912 176.101L180.557 175.306C179.789 174.85 179.01 174.518 178.825 174.563C178.198 174.716 178.671 175.404 179.734 175.788C180.972 176.249 181.161 176.726 180.463 177.579C180.008 178.132 179.723 178.081 178.416 177.154C177.566 176.518 176.899 175.997 176.853 175.968C176.844 175.93 178.424 174.178 180.311 172.07Z" fill="#9C0D13"/>
<path d="M132.907 39.5389C135.594 39.4838 136.916 42.8024 134.972 44.7242L42.3794 136.283C40.4886 138.153 37.3562 136.837 37.3562 134.173L37.3562 44.5127C37.3562 42.8457 38.6783 41.4712 40.3141 41.4377L132.907 39.5389Z" fill="#739EF2"/>
<path d="M47.6559 144.836C44.9689 144.891 43.6471 141.573 45.5906 139.651L138.183 48.092C140.074 46.2223 143.207 47.5383 143.207 50.2023L143.207 139.863C143.207 141.53 141.885 142.904 140.249 142.938L47.6559 144.836Z" fill="#739EF2"/>
<path d="M120.238 84.8257C118.795 84.9852 117.351 85.2985 117.003 85.4765C116.663 85.6184 115.527 86.8217 114.532 88.0624C113.493 89.3299 111.38 91.7016 109.84 93.2997C108.256 94.9246 104.2 99.4431 100.824 103.37C95.1102 109.956 94.6001 110.477 93.7107 110.243C93.1771 110.103 92.4376 110.178 92.0357 110.419C91.4105 110.793 91.3651 110.974 91.6285 111.737C91.892 112.5 91.7482 112.77 90.2814 114.079C88.5103 115.693 88.1145 116.514 88.7602 117.415C89.795 118.882 93.9711 122.639 94.5941 122.726C95.5198 122.816 96.9147 121.642 97.5807 120.199C98.3186 118.621 97.4905 118.596 96.5922 120.209C95.55 122.092 94.8007 122.357 93.5146 121.286C91.9538 119.951 89.1197 116.74 89.2014 116.414C89.3013 116.017 92.2887 113.336 92.5377 113.401C92.68 113.439 93.9388 114.618 95.3566 116.07C98.8038 119.558 100.601 119.954 101.032 117.332C101.187 116.564 102.495 114.982 105.788 111.688C108.321 109.157 113.218 103.858 116.674 99.9139C122.961 92.7078 122.961 92.7078 123.883 89.7916C124.471 87.9046 124.682 86.6118 124.506 86.2571C124.312 85.8209 124.411 85.5773 124.769 85.3631C125.751 84.7742 122.992 84.4333 120.238 84.8257ZM120.687 87.8716C121.297 88.7641 122.005 89.567 122.29 89.6419C123.144 89.8666 122.494 91.5449 121.244 92.2945C120.601 92.6799 119.771 92.5347 119.286 91.9523L119.225 91.8786C118.437 90.9392 118.393 90.6582 118.799 89.6477C119.402 88.304 119.118 88.0752 117.93 88.8797C116.152 90.0683 115.739 88.9964 117.236 86.9633C118.329 85.479 119.326 85.7412 120.687 87.8716ZM116.534 90.3613C116.864 90.353 117.065 90.7274 116.876 90.9976L116.151 92.0329C115.506 92.9416 114.378 94.1088 113.708 94.6642C111.312 96.4993 109.97 97.7642 108.348 99.8414C103.994 105.245 96.9762 112.643 96.3358 112.475C96.1935 112.437 95.8211 112.108 95.5289 111.762C95.0687 111.178 95.3555 110.791 99.2057 106.488C101.489 103.892 104.981 99.9569 106.978 97.7471C114.974 88.7181 115.073 88.6284 115.469 89.6187C115.618 90.0817 116.044 90.348 116.534 90.3613ZM119.884 93.6316C120.595 93.8189 120.237 94.3409 115.615 99.7508C111.531 104.532 107.118 109.264 100.916 115.53C100.603 115.871 100.292 115.751 99.4227 114.982C98.8285 114.479 98.2699 113.986 98.2169 113.895C98.1639 113.804 99.1486 112.753 100.366 111.532C104.589 107.404 108.563 103.211 110.883 100.47C112.128 98.9871 114.169 96.9045 115.385 95.8377C117.764 93.7671 118.141 93.1728 117.287 92.9481C116.718 92.7983 116.693 92.445 117.285 91.5991C117.625 91.1494 117.758 91.223 118.377 92.2333C118.783 92.8797 119.457 93.5193 119.884 93.6316ZM110.095 99.5307C108.635 101.265 107.373 102.667 107.301 102.648C107.052 102.582 110.771 97.8979 111.764 96.965C113.195 95.6466 112.693 96.4389 110.095 99.5307ZM95.5078 112.45C95.8878 113.05 97.1194 114.338 98.2813 115.298C100.162 116.872 100.356 117.154 99.8816 117.684C99.0581 118.546 98.3564 118.169 95.7252 115.358C94.405 113.97 93.0667 112.655 92.7738 112.462C92.1879 112.077 92.2287 111.009 92.8183 110.625C93.3542 110.303 94.7743 111.293 95.5078 112.45Z" fill="#9C0D13"/>
<path d="M52.0863 82.871C53.6869 81.8778 55.2787 81.8513 58.8121 82.7981C62.8869 83.8941 64.4065 83.7245 66.2622 81.9858C67.4408 80.8544 68.2771 78.9224 68.0291 77.8575C67.9583 77.5533 68.2606 76.6758 68.7371 75.8764C69.1678 75.048 69.4716 74.0093 69.3653 73.553C69.2428 72.8595 69.765 72.0891 71.631 70.2274C78.9004 62.9486 85.4883 55.7557 86.5164 53.9778C88.5253 50.5541 87.2756 48.3672 83.8088 49.2127C81.4484 49.7883 80.373 50.6936 77.4213 54.5884C76.0156 56.4182 72.7055 60.2799 70.0753 63.2121C65.6987 68.017 65.1514 68.5122 63.8163 68.6368C62.9503 68.7677 62.2024 69.0706 61.9044 69.4648C61.6153 69.897 60.4425 70.384 58.6353 70.8247C56.2381 71.4094 55.6096 71.7234 54.375 72.9489C51.7109 75.5678 50.3997 79.1429 51.0462 81.919C51.3295 83.136 51.4387 83.2701 52.0863 82.871ZM51.9605 78.4809C53.0843 75.2731 56.0759 72.0518 58.4731 71.4671C60.059 71.0804 62.7883 71.4194 62.6084 71.9858C62.542 72.2029 62.0139 72.613 61.4223 72.9181C60.8219 73.185 60.4414 73.5592 60.5963 73.7224C60.7423 73.8475 61.5626 73.6876 62.3754 73.3286C62.9424 73.0549 63.4711 72.8453 63.7861 72.7672C63.9768 72.72 64.1596 72.8246 64.1766 73.0206C64.2385 73.733 63.7103 75.5782 63.1871 76.1448C62.7033 76.7451 62.693 76.8682 63.1724 76.7513C63.5043 76.6703 64.0723 75.929 64.438 75.1565C64.7141 74.508 65.5891 74.4087 65.9944 74.9779C67.3475 76.9387 66.886 80.1458 64.9875 81.5331C63.6908 82.4924 62.1079 82.5569 58.3989 81.6932C55.7271 81.0989 55.0647 81.0997 53.4774 81.6476L52.8901 81.8538C52.2578 82.0758 51.6008 81.6115 51.5978 80.9405C51.614 80.173 51.7525 79.0943 51.9605 78.4809ZM63.2366 69.6624C64.2722 69.0883 65.8656 69.9054 67.431 71.7741C68.6778 73.2786 68.9449 74.2583 68.3578 75.0847C68.0038 75.573 67.8386 75.5329 67.303 74.7392C66.9946 74.2517 66.6774 73.7263 66.6419 73.5741C66.6065 73.422 65.6652 72.7273 64.5956 71.9834C63.8088 71.4609 63.087 70.9633 62.7227 70.6646C62.5391 70.514 62.4502 70.2718 62.613 70.0957C62.7454 69.9525 62.9609 69.7927 63.2366 69.6624ZM67.1061 68.0355C67.8407 67.1731 67.8776 67.1641 69.2674 68.1112C71.0039 69.3756 71.0748 69.6798 69.9567 71.2386C69.4888 71.8881 68.5459 71.9391 68.0228 71.3431L67.8234 71.1158C66.2388 69.3321 66.1945 69.1419 67.1061 68.0355ZM72.0109 62.8204C73.9256 60.6655 76.6692 57.3841 78.0942 55.4692C80.7759 51.9216 82.49 50.5792 84.7191 50.2767C86.6443 50.0081 86.6902 51.0418 84.8788 53.9753C84.0012 55.395 82.7533 57.0658 82.1042 57.626C81.464 58.2242 79.2719 60.5271 77.2643 62.785L74.6721 65.6706C74.0549 66.3576 73.0461 66.5185 72.2576 66.0557C71.4889 65.6001 70.7099 65.2677 70.5255 65.3126C69.8985 65.4656 70.3707 66.1542 71.4344 66.5378C72.6722 66.9995 72.8611 67.4759 72.1634 68.3292C71.7076 68.8825 71.4228 68.8314 70.1156 67.9043C69.9022 67.7444 69.7003 67.5918 69.5169 67.4525C68.8981 66.9825 68.8304 66.3782 69.3519 65.7917C69.9909 65.073 70.9526 64.0027 72.0109 62.8204Z" fill="#9C0D13"/>
</g>
</svg>
