<svg width="181" height="185" viewBox="0 0 181 185" fill="none" xmlns="http://www.w3.org/2000/svg">
<g id="box 1">
<path id="Polygon 1" d="M132.907 39.5389C135.594 39.4838 136.916 42.8024 134.972 44.7242L42.3794 136.283C40.4886 138.153 37.3562 136.837 37.3562 134.173L37.3562 44.5127C37.3562 42.8457 38.6783 41.4712 40.3141 41.4377L132.907 39.5389Z" fill="#739EF2"/>
<path id="Polygon 2" d="M47.6559 144.836C44.9689 144.891 43.6471 141.573 45.5906 139.651L138.183 48.092C140.074 46.2223 143.207 47.5383 143.207 50.2023L143.207 139.863C143.207 141.53 141.885 142.904 140.249 142.938L47.6559 144.836Z" fill="#739EF2"/>
<path id="&#208;&#186;&#208;&#176;&#209;&#128;&#208;&#176;&#208;&#189;&#208;&#180;&#208;&#176;&#209;&#136;" d="M120.238 84.8257C118.795 84.9852 117.351 85.2985 117.003 85.4765C116.663 85.6184 115.527 86.8217 114.532 88.0624C113.493 89.3299 111.38 91.7016 109.84 93.2997C108.256 94.9246 104.2 99.4431 100.824 103.37C95.1102 109.956 94.6001 110.477 93.7107 110.243C93.1771 110.103 92.4376 110.178 92.0357 110.419C91.4105 110.793 91.3651 110.974 91.6285 111.737C91.892 112.5 91.7482 112.77 90.2814 114.079C88.5103 115.693 88.1145 116.514 88.7602 117.415C89.795 118.882 93.9711 122.639 94.5941 122.726C95.5198 122.816 96.9147 121.642 97.5807 120.199C98.3186 118.621 97.4905 118.596 96.5922 120.209C95.55 122.092 94.8007 122.357 93.5146 121.286C91.9538 119.951 89.1197 116.74 89.2014 116.414C89.3013 116.017 92.2887 113.336 92.5377 113.401C92.68 113.439 93.9388 114.618 95.3566 116.07C98.8038 119.558 100.601 119.954 101.032 117.332C101.187 116.564 102.495 114.982 105.788 111.688C108.321 109.157 113.218 103.858 116.674 99.9139C122.961 92.7078 122.961 92.7078 123.883 89.7916C124.471 87.9046 124.682 86.6118 124.506 86.2571C124.312 85.8209 124.411 85.5773 124.769 85.3631C125.751 84.7742 122.992 84.4333 120.238 84.8257ZM120.687 87.8716C121.297 88.7641 122.005 89.567 122.29 89.6419C123.144 89.8666 122.494 91.5449 121.244 92.2945C120.601 92.6799 119.771 92.5347 119.286 91.9523L119.225 91.8786C118.437 90.9392 118.393 90.6582 118.799 89.6477C119.402 88.304 119.118 88.0752 117.93 88.8797C116.152 90.0683 115.739 88.9964 117.236 86.9633C118.329 85.479 119.326 85.7412 120.687 87.8716ZM116.534 90.3613C116.864 90.353 117.065 90.7274 116.876 90.9976L116.151 92.0329C115.506 92.9416 114.378 94.1088 113.708 94.6642C111.312 96.4993 109.97 97.7642 108.348 99.8414C103.994 105.245 96.9762 112.643 96.3358 112.475C96.1935 112.437 95.8211 112.108 95.5289 111.762C95.0687 111.178 95.3555 110.791 99.2057 106.488C101.489 103.892 104.981 99.9569 106.978 97.7471C114.974 88.7181 115.073 88.6284 115.469 89.6187C115.618 90.0817 116.044 90.348 116.534 90.3613ZM119.884 93.6316C120.595 93.8189 120.237 94.3409 115.615 99.7508C111.531 104.532 107.118 109.264 100.916 115.53C100.603 115.871 100.292 115.751 99.4227 114.982C98.8285 114.479 98.2699 113.986 98.2169 113.895C98.1639 113.804 99.1486 112.753 100.366 111.532C104.589 107.404 108.563 103.211 110.883 100.47C112.128 98.9871 114.169 96.9045 115.385 95.8377C117.764 93.7671 118.141 93.1728 117.287 92.9481C116.718 92.7983 116.693 92.445 117.285 91.5991C117.625 91.1494 117.758 91.223 118.377 92.2333C118.783 92.8797 119.457 93.5193 119.884 93.6316ZM110.095 99.5307C108.635 101.265 107.373 102.667 107.301 102.648C107.052 102.582 110.771 97.8979 111.764 96.965C113.195 95.6466 112.693 96.4389 110.095 99.5307ZM95.5078 112.45C95.8878 113.05 97.1194 114.338 98.2813 115.298C100.162 116.872 100.356 117.154 99.8816 117.684C99.0581 118.546 98.3564 118.169 95.7252 115.358C94.405 113.97 93.0667 112.655 92.7738 112.462C92.1879 112.077 92.2287 111.009 92.8183 110.625C93.3542 110.303 94.7743 111.293 95.5078 112.45Z" fill="#9C0D13"/>
<path id="&#208;&#186;&#208;&#184;&#209;&#129;&#209;&#130;&#209;&#140;" d="M52.0863 82.871C53.6869 81.8778 55.2787 81.8513 58.8121 82.7981C62.8869 83.8941 64.4065 83.7245 66.2622 81.9858C67.4408 80.8544 68.2771 78.9224 68.0291 77.8575C67.9583 77.5533 68.2606 76.6758 68.7371 75.8764C69.1678 75.048 69.4716 74.0093 69.3653 73.553C69.2428 72.8595 69.765 72.0891 71.631 70.2274C78.9004 62.9486 85.4883 55.7557 86.5164 53.9778C88.5253 50.5541 87.2756 48.3672 83.8088 49.2127C81.4484 49.7883 80.373 50.6936 77.4213 54.5884C76.0156 56.4182 72.7055 60.2799 70.0753 63.2121C65.6987 68.017 65.1514 68.5122 63.8163 68.6368C62.9503 68.7677 62.2024 69.0706 61.9044 69.4648C61.6153 69.897 60.4425 70.384 58.6353 70.8247C56.2381 71.4094 55.6096 71.7234 54.375 72.9489C51.7109 75.5678 50.3997 79.1429 51.0462 81.919C51.3295 83.136 51.4387 83.2701 52.0863 82.871ZM51.9605 78.4809C53.0843 75.2731 56.0759 72.0518 58.4731 71.4671C60.059 71.0804 62.7883 71.4194 62.6084 71.9858C62.542 72.2029 62.0139 72.613 61.4223 72.9181C60.8219 73.185 60.4414 73.5592 60.5963 73.7224C60.7423 73.8475 61.5626 73.6876 62.3754 73.3286C62.9424 73.0549 63.4711 72.8453 63.7861 72.7672C63.9768 72.72 64.1596 72.8246 64.1766 73.0206C64.2385 73.733 63.7103 75.5782 63.1871 76.1448C62.7033 76.7451 62.693 76.8682 63.1724 76.7513C63.5043 76.6703 64.0723 75.929 64.438 75.1565C64.7141 74.508 65.5891 74.4087 65.9944 74.9779C67.3475 76.9387 66.886 80.1458 64.9875 81.5331C63.6908 82.4924 62.1079 82.5569 58.3989 81.6932C55.7271 81.0989 55.0647 81.0997 53.4774 81.6476L52.8901 81.8538C52.2578 82.0758 51.6008 81.6115 51.5978 80.9405C51.614 80.173 51.7525 79.0943 51.9605 78.4809ZM63.2366 69.6624C64.2722 69.0883 65.8656 69.9054 67.431 71.7741C68.6778 73.2786 68.9449 74.2583 68.3578 75.0847C68.0038 75.573 67.8386 75.5329 67.303 74.7392C66.9946 74.2517 66.6774 73.7263 66.6419 73.5741C66.6065 73.422 65.6652 72.7273 64.5956 71.9834C63.8088 71.4609 63.087 70.9633 62.7227 70.6646C62.5391 70.514 62.4502 70.2718 62.613 70.0957C62.7454 69.9525 62.9609 69.7927 63.2366 69.6624ZM67.1061 68.0355C67.8407 67.1731 67.8776 67.1641 69.2674 68.1112C71.0039 69.3756 71.0748 69.6798 69.9567 71.2386C69.4888 71.8881 68.5459 71.9391 68.0228 71.3431L67.8234 71.1158C66.2388 69.3321 66.1945 69.1419 67.1061 68.0355ZM72.0109 62.8204C73.9256 60.6655 76.6692 57.3841 78.0942 55.4692C80.7759 51.9216 82.49 50.5792 84.7191 50.2767C86.6443 50.0081 86.6902 51.0418 84.8788 53.9753C84.0012 55.395 82.7533 57.0658 82.1042 57.626C81.464 58.2242 79.2719 60.5271 77.2643 62.785L74.6721 65.6706C74.0549 66.3576 73.0461 66.5185 72.2576 66.0557C71.4889 65.6001 70.7099 65.2677 70.5255 65.3126C69.8985 65.4656 70.3707 66.1542 71.4344 66.5378C72.6722 66.9995 72.8611 67.4759 72.1634 68.3292C71.7076 68.8825 71.4228 68.8314 70.1156 67.9043C69.9022 67.7444 69.7003 67.5918 69.5169 67.4525C68.8981 66.9825 68.8304 66.3782 69.3519 65.7917C69.9909 65.073 70.9526 64.0027 72.0109 62.8204Z" fill="#9C0D13"/>
</g>
</svg>
