<svg width="24" height="24" viewBox="0 0 24 24" fill="none" xmlns="http://www.w3.org/2000/svg">
<g id="&#208;&#184;&#208;&#186;&#208;&#190;&#208;&#189;&#208;&#186;&#208;&#176; whatsap" clip-path="url(#clip0_708_271)">
<path id="Vector" fill-rule="evenodd" clip-rule="evenodd" d="M12 24C5.3726 24 0 18.6274 0 12C0 5.3726 5.3726 0 12 0C18.6274 0 24 5.3726 24 12C24 18.6274 18.6274 24 12 24ZM12.3955 18.6763C16.3298 18.6747 19.5295 15.4741 19.531 11.5407C19.5318 9.63415 18.7903 7.8414 17.4431 6.4927C16.0959 5.14395 14.3043 4.40083 12.3954 4.4C8.4624 4.4 5.2614 7.60085 5.2598 11.5351C5.2593 12.7928 5.58785 14.0203 6.2123 15.1024L5.2 18.8L8.98265 17.8078C10.0249 18.3762 11.1983 18.6758 12.3926 18.6763H12.3955Z" fill="black"/>
<path id="Vector_2" fill-rule="evenodd" clip-rule="evenodd" d="M9.15795 16.5157L6.91325 17.1046L7.5124 14.916L7.3714 14.6916C6.7777 13.7473 6.46415 12.656 6.4646 11.5353C6.4659 8.26533 9.12645 5.60498 12.3979 5.60498C13.982 5.60553 15.4711 6.22323 16.5909 7.34428C17.7106 8.46533 18.3269 9.95538 18.3263 11.5401C18.3249 14.8104 15.6644 17.471 12.3955 17.471H12.3932C11.3289 17.4705 10.2851 17.1846 9.3745 16.6443L9.15795 16.5157ZM15.9904 13.2373C15.9459 13.163 15.827 13.1184 15.6487 13.0291C15.4704 12.9398 14.5939 12.5086 14.4304 12.449C14.267 12.3895 14.1481 12.3598 14.0293 12.5382C13.9104 12.7167 13.5687 13.1184 13.4647 13.2373C13.3607 13.3563 13.2566 13.3712 13.0785 13.282C12.9002 13.1927 12.3257 13.0045 11.6447 12.397C11.1146 11.9242 10.7568 11.3404 10.6528 11.1619C10.5487 10.9834 10.6417 10.8869 10.731 10.798C10.8112 10.7181 10.9092 10.5897 10.9984 10.4857C11.0875 10.3816 11.1172 10.3072 11.1767 10.1883C11.2361 10.0692 11.2064 9.96513 11.1618 9.87588C11.1173 9.78663 10.7606 8.90903 10.6121 8.55203C10.4673 8.20438 10.3204 8.25148 10.2109 8.24598C10.107 8.24078 9.9881 8.23968 9.86925 8.23968C9.7504 8.23968 9.5572 8.28428 9.3938 8.46278C9.23035 8.64128 8.76975 9.07263 8.76975 9.95018C8.76975 10.8278 9.40865 11.6756 9.4978 11.7946C9.58695 11.9136 10.755 13.7144 12.5435 14.4867C12.9689 14.6704 13.301 14.7801 13.56 14.8623C13.9871 14.998 14.3758 14.9789 14.683 14.9329C15.0255 14.8818 15.7378 14.5017 15.8864 14.0852C16.035 13.6687 16.035 13.3117 15.9904 13.2373Z" fill="black"/>
</g>
<defs>
<clipPath id="clip0_708_271">
<rect width="24" height="24" fill="white"/>
</clipPath>
</defs>
</svg>
