<svg width="24" height="24" viewBox="0 0 24 24" fill="none" xmlns="http://www.w3.org/2000/svg">
<g id="&#208;&#184;&#208;&#186;&#208;&#190;&#208;&#189;&#208;&#186;&#208;&#176; &#208;&#178;&#208;&#186;" clip-path="url(#clip0_802_264)">
<path id="Vector" fill-rule="evenodd" clip-rule="evenodd" d="M0 12C0 5.3726 5.3726 0 12 0C18.6274 0 24 5.3726 24 12C24 18.6274 18.6274 24 12 24C5.3726 24 0 18.6274 0 12ZM12.6278 15.9381C12.6278 15.9381 12.8587 15.9129 12.977 15.7881C13.0854 15.6738 13.0816 15.4581 13.0816 15.4581C13.0816 15.4581 13.0672 14.4509 13.5436 14.3021C14.0132 14.1559 14.6161 15.2762 15.2559 15.707C15.7392 16.0327 16.1061 15.9614 16.1061 15.9614L17.8158 15.9381C17.8158 15.9381 18.7098 15.8839 18.2859 15.1938C18.2509 15.1373 18.0387 14.6832 17.0151 13.7503C15.9427 12.7739 16.0867 12.9317 17.3776 11.2424C18.1639 10.2137 18.4782 9.58565 18.3799 9.31715C18.2866 9.06025 17.7081 9.12845 17.7081 9.12845L15.7837 9.14015C15.7837 9.14015 15.6409 9.1211 15.5351 9.18315C15.4318 9.244 15.3648 9.38595 15.3648 9.38595C15.3648 9.38595 15.0605 10.1817 14.6543 10.8589C13.7972 12.2871 13.4548 12.3627 13.3145 12.2743C12.9883 12.0672 13.0697 11.4434 13.0697 11.0003C13.0697 9.6158 13.2839 9.03875 12.6534 8.8894C12.4443 8.83965 12.2903 8.80705 11.755 8.80155C11.0682 8.7948 10.4873 8.804 10.158 8.96195C9.93885 9.067 9.7698 9.30175 9.8731 9.3153C10.0002 9.33185 10.2882 9.3915 10.441 9.5955C10.6382 9.85915 10.6313 10.4503 10.6313 10.4503C10.6313 10.4503 10.7446 12.08 10.3665 12.2822C10.1073 12.4211 9.75165 12.1378 8.98725 10.8418C8.596 10.1781 8.3005 9.44435 8.3005 9.44435C8.3005 9.44435 8.2435 9.3073 8.14145 9.23355C8.01815 9.14445 7.84595 9.1168 7.84595 9.1168L6.0173 9.12845C6.0173 9.12845 5.74245 9.13585 5.64165 9.2532C5.55215 9.35705 5.63475 9.57275 5.63475 9.57275C5.63475 9.57275 7.06655 12.8611 8.688 14.5185C10.1748 16.0376 11.8627 15.9381 11.8627 15.9381H12.6278Z" fill="black"/>
</g>
<defs>
<clipPath id="clip0_802_264">
<rect width="24" height="24" fill="white"/>
</clipPath>
</defs>
</svg>
