<svg width="170" height="170" viewBox="0 0 170 170" fill="none" xmlns="http://www.w3.org/2000/svg">
<g id="Logo box " opacity="0.2">
<g id="box 1">
<path id="Polygon 1" d="M76.2661 23.6464C78.9531 23.5913 80.2749 26.9099 78.3314 28.8317L27.3059 79.2875C25.4151 81.1572 22.2827 79.8412 22.2827 77.1772L22.2827 27.7677C22.2827 26.1007 23.6048 24.7263 25.2406 24.6927L76.2661 23.6464Z" fill="white"/>
<path id="Polygon 2" d="M31.4381 86.3317C28.7511 86.3868 27.4293 83.0682 29.3728 81.1464L80.3984 30.6905C82.2891 28.8208 85.4215 30.1368 85.4215 32.8008L85.4215 82.2103C85.4215 83.8773 84.0994 85.2518 82.4637 85.2853L31.4381 86.3317Z" fill="white"/>
<path id="&#208;&#186;&#208;&#176;&#209;&#128;&#208;&#176;&#208;&#189;&#208;&#180;&#208;&#176;&#209;&#136;" d="M75.6029 54.1086C74.5663 54.2231 73.5291 54.4482 73.2791 54.5761C73.0356 54.678 72.2192 55.5424 71.5049 56.4336C70.7586 57.3441 69.241 59.0477 68.1354 60.1957C66.9977 61.3629 64.0848 64.6087 61.66 67.4296C57.5567 72.1608 57.1903 72.5348 56.5516 72.3666C56.1684 72.2657 55.6373 72.3196 55.3486 72.4927C54.8996 72.7619 54.867 72.8917 55.0562 73.4396C55.2454 73.9876 55.1422 74.1818 54.0887 75.1221C52.8168 76.2816 52.5325 76.8709 52.9963 77.5188C53.7394 78.5723 56.7386 81.2714 57.186 81.3338C57.8508 81.3981 58.8526 80.5549 59.3309 79.5185C59.8608 78.3851 59.2662 78.3669 58.621 79.5254C57.8725 80.878 57.3344 81.0685 56.4108 80.2995C55.2898 79.3402 53.2544 77.0333 53.3131 76.7997C53.3849 76.5142 55.5303 74.5884 55.7092 74.6355C55.8114 74.6624 56.7154 75.5092 57.7336 76.5521C60.2093 79.058 61.4998 79.3423 61.8096 77.4591C61.921 76.9072 62.8602 75.7708 65.2253 73.4047C67.044 71.5866 70.5609 67.7803 73.0433 64.9469C77.5581 59.7706 77.5581 59.7706 78.2206 57.6758C78.6429 56.3202 78.7945 55.3916 78.6678 55.1368C78.5286 54.8235 78.5998 54.6485 78.8564 54.4946C79.5619 54.0716 77.5805 53.8267 75.6029 54.1086ZM75.9249 56.2965C76.3631 56.9377 76.8719 57.5144 77.0763 57.5682C77.6895 57.7297 77.2232 58.9352 76.3252 59.4737L75.5234 59.9544L74.8748 59.1749C74.3089 58.5001 74.2779 58.2982 74.5692 57.5724C75.0024 56.6072 74.7986 56.4428 73.9452 57.0207C72.6683 57.8745 72.3715 57.1045 73.4466 55.6441C74.232 54.5779 74.9474 54.7662 75.9249 56.2965ZM72.9423 58.085L73.518 58.0705L72.6679 59.2857C72.2042 59.9385 71.3943 60.7769 70.9127 61.1759C69.1923 62.4941 68.2286 63.4027 67.0637 64.8948C63.9367 68.7761 58.8968 74.0909 58.4369 73.9699C58.3347 73.943 58.0672 73.7065 57.8574 73.4576C57.5269 73.0385 57.7329 72.7606 60.4979 69.6696C62.1379 67.8044 64.6458 64.9778 66.0797 63.3905C71.8224 56.9046 71.8931 56.8402 72.1774 57.5515C72.2845 57.8842 72.5906 58.0754 72.9423 58.085ZM75.3484 60.4342C75.8594 60.5687 75.6017 60.9436 72.2828 64.8297C69.3498 68.264 66.1803 71.6636 61.7263 76.1642C61.5013 76.4093 61.2779 76.3228 60.6538 75.7711C60.227 75.4097 59.8258 75.055 59.7878 74.9897C59.7497 74.9243 60.4569 74.1696 61.331 73.2927C64.364 70.3276 67.2183 67.3154 68.8843 65.3464C69.7784 64.2811 71.2438 62.7851 72.1174 62.0188C73.8258 60.5315 74.0965 60.1046 73.4833 59.9432C73.0745 59.8355 73.0565 59.5818 73.4816 58.9741C73.7262 58.6511 73.8219 58.704 74.266 59.4297C74.558 59.894 75.0418 60.3535 75.3484 60.4342ZM68.3183 64.6716C67.2698 65.9176 66.3632 66.9243 66.3121 66.9108C66.1332 66.8637 68.8037 63.4987 69.5168 62.8286C70.5447 61.8816 70.1838 62.4507 68.3183 64.6716ZM57.8422 73.9517C58.1151 74.3833 58.9996 75.308 59.8341 75.9981C61.1844 77.1284 61.3241 77.3313 60.9833 77.712C60.3919 78.3312 59.888 78.0601 57.9983 76.0406C57.0503 75.0439 56.0891 74.099 55.8787 73.9606C55.458 73.6838 55.4873 72.9166 55.9107 72.6407C56.2956 72.4099 57.3154 73.1212 57.8422 73.9517Z" fill="#9C0D13"/>
<path id="&#208;&#186;&#208;&#184;&#209;&#129;&#209;&#130;&#209;&#140;" d="M30.6583 54.4109C31.8078 53.6975 32.951 53.6784 35.4885 54.3585C38.415 55.1458 39.5062 55.024 40.8389 53.775C41.6854 52.9623 42.286 51.5745 42.1079 50.8096C42.057 50.591 42.2742 49.9607 42.6163 49.3864C42.9257 48.7913 43.1438 48.0453 43.0675 47.7175C42.9795 47.2193 43.3545 46.6659 44.6947 45.3286C49.9153 40.1 54.6465 34.9331 55.3849 33.656C56.8277 31.1966 55.9301 29.6257 53.4404 30.2331C51.7452 30.6466 50.9729 31.2969 48.8531 34.0946C47.8435 35.409 45.4663 38.183 43.5774 40.2892C40.4343 43.7408 40.0412 44.0965 39.0824 44.186C38.4605 44.28 37.9233 44.4977 37.7093 44.7808C37.5017 45.0913 36.6594 45.4411 35.3616 45.7577C33.6399 46.1776 33.1886 46.4032 32.3019 47.2835C30.3886 49.1648 29.447 51.7329 29.9113 53.7271C30.1148 54.6012 30.1932 54.6976 30.6583 54.4109ZM30.5679 51.2574C31.375 48.9531 33.5234 46.6391 35.2451 46.2191C36.384 45.9413 38.3441 46.1849 38.2149 46.5917C38.1672 46.7477 37.788 47.0423 37.3631 47.2614C36.9319 47.4532 36.6586 47.7219 36.7699 47.8391C36.8748 47.929 37.4638 47.8142 38.0476 47.5563C38.6515 47.2647 39.195 47.0743 39.267 47.1434C39.5298 47.3102 39.0776 49.0949 38.6305 49.5793C38.2831 50.0105 38.2756 50.0989 38.62 50.0149C38.8584 49.9567 39.2662 49.4242 39.5289 48.8694L39.9812 47.8063L40.6467 48.741C41.6184 50.1495 41.287 52.4533 39.9235 53.4499C38.9923 54.1389 37.8554 54.1853 35.1918 53.5648C33.273 53.1379 32.7973 53.1385 31.6573 53.5321L30.3118 54.0046L30.3075 53.0242C30.3191 52.4728 30.4186 51.698 30.5679 51.2574ZM38.6661 44.9227C39.4098 44.5103 40.5541 45.0973 41.6784 46.4397C42.5738 47.5203 42.7656 48.2241 42.344 48.8178C42.0897 49.1685 41.9711 49.1397 41.5864 48.5695C41.365 48.2194 41.1371 47.8419 41.1117 47.7327C41.0862 47.6234 40.4102 47.1243 39.642 46.59C38.8474 46.0621 38.1449 45.5695 38.1194 45.4602C38.0675 45.3574 38.2879 45.1016 38.6661 44.9227ZM41.445 43.7541C41.9726 43.1346 41.9991 43.1281 42.9972 43.8085C44.2443 44.7167 44.2952 44.9353 43.4922 46.0549L42.8365 46.9655L41.9602 45.9668C40.8221 44.6855 40.7903 44.5489 41.445 43.7541ZM44.9675 40.0079C46.3425 38.46 48.313 36.1028 49.3363 34.7273C51.2622 32.179 52.4933 31.2147 54.0941 30.9974C55.4768 30.8044 55.5097 31.547 54.2088 33.6542C53.5785 34.674 52.6823 35.8742 52.2162 36.2766C51.7564 36.7063 50.1822 38.3605 48.7403 39.9825L46.1173 42.903L45.1446 42.3319C44.5926 42.0047 44.0332 41.7659 43.9007 41.7982C43.4505 41.908 43.7896 42.4027 44.5535 42.6782C45.4424 43.0099 45.5781 43.3521 45.077 43.9651C44.7497 44.3625 44.5452 44.3258 43.6064 43.6598C42.9961 43.2025 42.5171 42.8285 42.4843 42.8077C42.4779 42.7804 43.6125 41.5221 44.9675 40.0079Z" fill="#9C0D13"/>
</g>
<g id="box 2">
<path id="Polygon 3" d="M138.562 83.6683C141.249 83.6132 142.571 86.9318 140.627 88.8536L89.6015 139.309C87.7107 141.179 84.5783 139.863 84.5783 137.199L84.5783 87.7897C84.5783 86.1227 85.9005 84.7482 87.5362 84.7147L138.562 83.6683Z" fill="white"/>
<path id="Polygon 4" d="M93.7338 146.354C91.0468 146.409 89.725 143.09 91.6685 141.168L142.694 90.7125C144.585 88.8428 147.717 90.1588 147.717 92.8228L147.717 142.232C147.717 143.899 146.395 145.274 144.759 145.307L93.7338 146.354Z" fill="white"/>
<path id="&#208;&#186;&#208;&#176;&#209;&#128;&#208;&#176;&#208;&#189;&#208;&#180;&#208;&#176;&#209;&#136;_2" d="M137.603 115.526C136.566 115.641 135.529 115.866 135.279 115.994C135.036 116.096 134.219 116.96 133.505 117.851C132.759 118.762 131.241 120.465 130.135 121.613C128.998 122.78 126.085 126.026 123.66 128.847C119.557 133.578 119.19 133.952 118.552 133.784C118.168 133.683 117.637 133.737 117.349 133.91C116.9 134.179 116.867 134.309 117.056 134.857C117.245 135.405 117.142 135.599 116.089 136.54C114.817 137.699 114.533 138.288 114.996 138.936C115.739 139.99 118.739 142.689 119.186 142.751C119.851 142.816 120.853 141.972 121.331 140.936C121.861 139.803 121.266 139.784 120.621 140.943C119.873 142.296 119.334 142.486 118.411 141.717C117.29 140.758 115.254 138.451 115.313 138.217C115.385 137.932 117.53 136.006 117.709 136.053C117.811 136.08 118.715 136.927 119.734 137.97C122.209 140.475 123.5 140.76 123.81 138.877C123.921 138.325 124.86 137.188 127.225 134.822C129.044 133.004 132.561 129.198 135.043 126.364C139.558 121.188 139.558 121.188 140.221 119.093C140.643 117.738 140.794 116.809 140.668 116.554C140.529 116.241 140.6 116.066 140.856 115.912C141.562 115.489 139.581 115.244 137.603 115.526ZM137.925 117.714C138.363 118.355 138.872 118.932 139.076 118.986C139.689 119.147 139.223 120.353 138.325 120.891L137.523 121.372L136.875 120.592C136.309 119.918 136.278 119.716 136.569 118.99C137.002 118.025 136.799 117.86 135.945 118.438C134.668 119.292 134.371 118.522 135.447 117.062C136.232 115.995 136.947 116.184 137.925 117.714ZM134.942 119.502L135.518 119.488L134.668 120.703C134.204 121.356 133.394 122.194 132.913 122.593C131.192 123.912 130.229 124.82 129.064 126.312C125.937 130.194 120.897 135.508 120.437 135.387C120.335 135.36 120.067 135.124 119.857 134.875C119.527 134.456 119.733 134.178 122.498 131.087C124.138 129.222 126.646 126.395 128.08 124.808C133.822 118.322 133.893 118.258 134.177 118.969C134.285 119.302 134.591 119.493 134.942 119.502ZM137.348 121.852C137.859 121.986 137.602 122.361 134.283 126.247C131.35 129.681 128.18 133.081 123.726 137.582C123.501 137.827 123.278 137.74 122.654 137.189C122.227 136.827 121.826 136.473 121.788 136.407C121.75 136.342 122.457 135.587 123.331 134.71C126.364 131.745 129.218 128.733 130.884 126.764C131.778 125.699 133.244 124.203 134.117 123.436C135.826 121.949 136.096 121.522 135.483 121.361C135.074 121.253 135.057 120.999 135.482 120.392C135.726 120.069 135.822 120.121 136.266 120.847C136.558 121.311 137.042 121.771 137.348 121.852ZM130.318 126.089C129.27 127.335 128.363 128.342 128.312 128.328C128.133 128.281 130.804 124.916 131.517 124.246C132.545 123.299 132.184 123.868 130.318 126.089ZM119.842 135.369C120.115 135.801 121 136.725 121.834 137.416C123.184 138.546 123.324 138.749 122.983 139.129C122.392 139.749 121.888 139.478 119.998 137.458C119.05 136.461 118.089 135.516 117.879 135.378C117.458 135.101 117.487 134.334 117.911 134.058C118.296 133.827 119.315 134.539 119.842 135.369Z" fill="#9C0D13"/>
<path id="&#208;&#186;&#208;&#184;&#209;&#129;&#209;&#130;&#209;&#140;_2" d="M92.6583 115.828C93.8078 115.115 94.951 115.096 97.4885 115.776C100.415 116.563 101.506 116.441 102.839 115.193C103.685 114.38 104.286 112.992 104.108 112.227C104.057 112.009 104.274 111.378 104.616 110.804C104.926 110.209 105.144 109.463 105.068 109.135C104.98 108.637 105.355 108.083 106.695 106.746C111.915 101.518 116.647 96.3506 117.385 95.0735C118.828 92.6141 117.93 91.0432 115.44 91.6505C113.745 92.0641 112.973 92.7143 110.853 95.5121C109.844 96.8265 107.466 99.6004 105.577 101.707C102.434 105.158 102.041 105.514 101.082 105.604C100.46 105.697 99.9233 105.915 99.7093 106.198C99.5017 106.509 98.6594 106.859 97.3616 107.175C95.6399 107.595 95.1886 107.821 94.3019 108.701C92.3886 110.582 91.447 113.15 91.9113 115.145C92.1148 116.019 92.1932 116.115 92.6583 115.828ZM92.5679 112.675C93.375 110.371 95.5234 108.057 97.2451 107.637C98.384 107.359 100.344 107.602 100.215 108.009C100.167 108.165 99.788 108.46 99.3631 108.679C98.9319 108.871 98.6586 109.139 98.7699 109.257C98.8748 109.346 99.4638 109.232 100.048 108.974C100.651 108.682 101.195 108.492 101.267 108.561C101.53 108.728 101.078 110.512 100.631 110.997C100.283 111.428 100.276 111.516 100.62 111.432C100.858 111.374 101.266 110.842 101.529 110.287L101.981 109.224L102.647 110.159C103.618 111.567 103.287 113.871 101.924 114.867C100.992 115.556 99.8554 115.603 97.1918 114.982C95.273 114.555 94.7973 114.556 93.6573 114.95L92.3118 115.422L92.3075 114.442C92.3191 113.89 92.4186 113.115 92.5679 112.675ZM100.666 106.34C101.41 105.928 102.554 106.515 103.678 107.857C104.574 108.938 104.766 109.642 104.344 110.235C104.09 110.586 103.971 110.557 103.586 109.987C103.365 109.637 103.137 109.259 103.112 109.15C103.086 109.041 102.41 108.542 101.642 108.007C100.847 107.48 100.145 106.987 100.119 106.878C100.068 106.775 100.288 106.519 100.666 106.34ZM103.445 105.172C103.973 104.552 103.999 104.546 104.997 105.226C106.244 106.134 106.295 106.353 105.492 107.472L104.836 108.383L103.96 107.384C102.822 106.103 102.79 105.966 103.445 105.172ZM106.967 101.425C108.343 99.8775 110.313 97.5203 111.336 96.1448C113.262 93.5964 114.493 92.6322 116.094 92.4149C117.477 92.2219 117.51 92.9645 116.209 95.0717C115.579 96.0915 114.682 97.2917 114.216 97.6941C113.756 98.1238 112.182 99.778 110.74 101.4L108.117 104.32L107.145 103.749C106.593 103.422 106.033 103.183 105.901 103.216C105.45 103.325 105.79 103.82 106.553 104.096C107.442 104.427 107.578 104.77 107.077 105.383C106.75 105.78 106.545 105.743 105.606 105.077C104.996 104.62 104.517 104.246 104.484 104.225C104.478 104.198 105.613 102.94 106.967 101.425Z" fill="#9C0D13"/>
</g>
</g>
</svg>
