<svg width="221" height="99" viewBox="0 0 221 99" fill="none" xmlns="http://www.w3.org/2000/svg">
<g id="&#209;&#130;&#208;&#181;&#208;&#186;&#209;&#129;&#209;&#130;">
<g id="&#208;&#186;&#209;&#128;&#208;&#176;&#209;&#129;&#208;&#189;&#209;&#139;&#208;&#185;">
<path id="Vector" d="M1.23478 0.462336C1.39006 0.770567 1.8559 1.02743 2.21822 1.02743C3.14991 1.02743 5.47911 3.59601 6.15199 5.39402C7.08367 7.65437 6.92839 14.795 5.94495 17.0554C5.11679 19.0075 2.89111 21.0624 1.70062 21.0624C1.28654 21.0624 0.975983 21.2679 0.975983 21.5761C0.975983 21.8843 4.23687 22.0898 9.7752 22.0898C15.3135 22.0898 18.5744 21.8843 18.5744 21.5761C18.5744 21.2679 18.1603 21.0624 17.6427 21.0624C16.6075 21.0624 14.4336 18.9561 13.3466 16.9526C12.2597 14.8464 12.4667 7.34614 13.6572 4.93167C14.9512 2.36309 15.6758 2.1576 16.8146 3.85287C18.7297 6.78105 17.591 12.7915 14.8994 13.6135C13.3984 14.1272 13.7607 14.8978 15.4688 14.8978C17.591 14.8978 20.5931 13.6135 22.3529 11.9182C25.4067 8.99004 25.1997 4.21247 21.8353 1.69526C19.9719 0.256849 19.9202 0.256849 10.3963 0.102736C3.77103 -9.53674e-06 0.975983 0.102736 1.23478 0.462336Z" fill="#9C0D13"/>
<path id="Vector_2" d="M39.0548 1.51545C40.1936 3.21072 40.2971 9.27258 39.2619 13.3309C38.3302 17.1838 35.9492 20.6257 34.0341 20.9853C30.5662 21.7045 32.8436 22.2182 39.3654 22.2182C45.4213 22.1669 46.0942 22.1155 45.1625 21.4477C43.1956 20.0606 42.8333 19.5983 42.8333 18.6222C42.8333 17.1838 44.6449 15.5399 46.1977 15.5399C47.647 15.5399 49.5621 17.1838 49.5621 18.4167C49.5621 18.8791 48.8375 19.9065 47.9576 20.7285L46.353 22.2182H53.4441C57.999 22.2182 60.38 22.0128 60.173 21.7045C60.0177 21.3963 59.5518 21.1908 59.1378 21.1908C57.6885 21.1908 55.3075 18.5195 54.1688 15.6427C52.6677 11.6357 52.2019 4.44364 53.3924 2.18328C53.8582 1.25859 54.2205 0.385277 54.2205 0.282534C54.2205 0.231161 50.5973 0.128418 46.1977 0.128418H38.1749L39.0548 1.51545ZM47.6988 12.0466C47.3365 13.1768 45.0073 13.2796 44.5414 12.1494C44.3861 11.7384 44.6967 9.94041 45.2143 8.19377L46.146 5.0601L47.0777 8.09103C47.5953 9.73492 47.9058 11.5329 47.6988 12.0466Z" fill="#9C0D13"/>
<path id="Vector_3" d="M78.8232 0.513706C75.2 1.23291 71.525 3.39052 69.9722 5.75362C68.7299 7.55163 68.5229 8.42494 68.5229 11.3018C68.5229 14.2299 68.7817 15.1033 70.0757 17.2095C73.1296 22.1412 80.2724 24.1447 85.0861 21.422C87.4153 20.0863 89.8481 16.9013 90.3139 14.4868C90.728 12.5347 89.9516 12.3292 88.9681 14.1272C87.8294 16.1821 85.9143 17.1581 82.9122 17.1068C79.8066 17.1068 77.995 16.1307 76.5457 13.7162C73.4919 8.78455 77.5809 2.31171 83.0675 3.28778C85.6037 3.80149 88.2435 6.42145 88.7093 8.88729C88.9164 9.91472 89.2787 10.788 89.4857 10.788C90.0551 10.788 90.3657 8.99003 90.8315 3.95561L91.1421 -1.14441e-05L86.0696 0.0513611C83.2228 0.102732 79.9619 0.30822 78.8232 0.513706Z" fill="#9C0D13"/>
<path id="Vector_4" d="M98.8026 7.50026C98.8026 7.65437 99.3719 8.27083 100.097 8.83592C101.649 10.0688 102.633 13.408 102.219 16.2848C101.908 18.802 100.614 21.0624 99.5272 21.0624C99.1131 21.0624 98.8026 21.2679 98.8026 21.5761C98.8026 21.8843 100.873 22.0898 103.979 22.0898C106.825 22.0898 109.155 21.9357 109.155 21.7816C109.155 21.6275 108.637 21.0624 108.016 20.5487C106.981 19.7267 106.825 19.1103 106.825 16.028C106.825 13.2025 107.032 12.2265 107.809 11.3531C109.103 9.91473 110.5 9.9661 111.536 11.5586C112.674 13.3053 112.364 19.8295 111.07 20.8055C110.604 21.1651 110.19 21.5761 110.19 21.7816C110.19 21.9357 112.312 22.0898 114.848 22.0898C117.591 22.0898 119.507 21.8843 119.507 21.5761C119.507 21.2679 119.248 21.0624 118.937 21.0624C117.902 21.0624 116.815 17.3122 117.126 14.6923C117.591 10.5826 120.128 8.88729 121.888 11.5586C123.026 13.3053 122.716 19.8295 121.422 20.8055C120.956 21.1651 120.542 21.5761 120.542 21.7816C120.542 21.9357 122.509 22.0898 124.941 22.0898C127.529 22.0898 129.341 21.8843 129.341 21.5761C129.341 21.2679 129.134 21.0624 128.875 21.0624C128.099 21.0624 127.271 17.9801 127.271 15.0519C127.271 12.021 126.235 8.93867 124.786 7.91123C123.44 6.8838 119.507 7.03791 117.54 8.21946L115.832 9.2469L114.745 8.21946C113.244 6.83243 109.465 6.83243 107.239 8.21946C105.531 9.2469 105.531 9.2469 105.531 8.21946C105.531 7.29477 105.169 7.19203 102.167 7.19203C100.304 7.19203 98.8026 7.34614 98.8026 7.50026Z" fill="#9C0D13"/>
<path id="Vector_5" d="M136.07 7.50026C136.07 7.65438 136.536 8.37358 137.105 9.09278C137.726 9.86336 138.14 11.199 138.14 12.3292C138.14 15.8738 139.175 19.7267 140.418 20.9596C142.022 22.6035 145.904 22.6549 148.026 21.1138C149.838 19.7781 150.045 19.7781 150.045 21.0624C150.045 21.9871 150.407 22.0898 153.513 22.0898H156.981L155.221 20.6C153.513 19.213 153.409 18.9561 153.254 15.3601C153.151 12.2265 153.306 11.2504 154.134 9.86336C154.755 8.99004 155.583 8.21946 155.997 8.21946C156.412 8.21946 156.774 7.96261 156.774 7.70575C156.774 7.39752 154.703 7.19203 151.598 7.19203C148.492 7.19203 146.422 7.39752 146.422 7.70575C146.422 7.96261 146.629 8.21946 146.939 8.21946C148.596 8.21946 149.579 13.8703 148.441 16.7985C147.819 18.4424 147.095 19.0075 145.542 19.0075C143.73 19.0075 142.799 17.1068 142.799 13.4594C142.799 10.6853 143.006 10.0175 144.093 8.93867C144.817 8.21946 145.387 7.55163 145.387 7.44889C145.387 7.29477 143.316 7.19203 140.728 7.19203C138.192 7.19203 136.07 7.34615 136.07 7.50026Z" fill="#9C0D13"/>
<path id="Vector_6" d="M167.644 7.65437C167.644 7.9626 167.902 8.3222 168.161 8.47632C169.041 8.99004 168.73 14.4868 167.695 16.6958C167.178 17.8773 166.039 19.4185 165.107 20.1377C164.227 20.9083 163.503 21.6275 163.503 21.7816C163.503 21.9357 165.728 22.0898 168.42 22.0898C171.37 22.0898 173.337 21.8843 173.337 21.5761C173.337 21.2679 173.078 21.0624 172.82 21.0624C172.509 21.0624 172.043 20.4973 171.733 19.8295C171.267 18.8534 171.422 17.7746 172.302 14.6923C173.596 10.3771 174.217 10.223 174.838 14.1786L175.252 16.6958L175.615 14.6409C176.391 10.5312 176.65 10.3771 177.892 13.5621C179.238 17.0554 179.393 20.4459 178.254 20.8569C176.339 21.5761 177.84 22.0898 181.878 22.0898C184.31 22.0898 186.277 21.8843 186.277 21.6788C186.277 21.422 185.811 20.8055 185.19 20.2404C182.447 17.7746 181.049 11.9182 182.343 8.3222C182.757 7.2434 182.654 7.19203 180.325 7.19203C178.254 7.19203 177.685 7.44888 176.391 8.78455C175.563 9.65787 174.89 10.1202 174.89 9.81198C174.89 8.37358 172.82 7.19203 170.232 7.19203C168.834 7.19203 167.644 7.39751 167.644 7.65437Z" fill="#9C0D13"/>
</g>
<g id="&#209;&#129;&#208;&#184;&#208;&#189;&#208;&#184;&#208;&#185;">
<path id="Vector_7" d="M29.5993 28.203C23.1293 32.8779 16.9698 46.7482 13.1396 65.3448C12.4667 68.6839 11.7938 71.5607 11.6386 71.8176C11.4833 72.0231 10.3446 72.7937 8.99879 73.4615C7.70479 74.1293 6.15198 75.465 5.53086 76.441C1.8559 82.4002 8.68823 96.065 15.0547 95.4486C16.3487 95.3458 16.8663 94.9862 17.2286 93.9588C17.591 92.8286 17.3839 92.1094 15.7794 89.5922C14.7442 87.8969 13.916 86.4072 13.916 86.2017C13.916 85.9962 14.6406 85.4825 15.5723 85.0715C16.9181 84.3523 19.8684 84.2495 35.2412 84.2495C46.9907 84.2495 53.2537 84.4037 53.2537 84.7633C53.2537 85.0715 52.5808 86.253 51.7009 87.4346C50.8727 88.5648 50.1481 89.9518 50.1481 90.4655C50.1481 91.9039 51.5973 92.9827 53.5642 92.9827C54.9617 92.9827 55.7899 92.5204 57.5498 90.7737C60.1895 88.2052 62.881 83.068 63.3986 79.8316C64.0198 75.465 61.1212 70.8929 57.7568 70.8929C56.5663 70.8929 56.411 70.636 56.1005 68.4271C54.7547 58.4096 49.941 43.2549 45.6449 35.6519C43.8851 32.5183 40.1584 28.5113 38.0362 27.5352C35.2412 26.1995 32.032 26.4564 29.5993 28.203ZM32.1873 51.2176C34.1024 53.3752 40.2619 68.6326 40.3136 71.4066C40.3136 72.0745 39.4855 72.1258 33.9989 71.7662C30.4792 71.5607 26.649 71.4066 25.4585 71.5094C24.2163 71.6121 23.2328 71.5094 23.2328 71.3552C23.2328 70.3278 25.9761 57.9472 26.5972 55.9951C28.3053 50.9093 30.3239 49.2141 32.1873 51.2176Z" fill="#0E3C87"/>
<path id="Vector_8" d="M121.215 29.2305C117.436 31.1826 114.693 34.0081 112.881 37.9637C111.639 40.5323 111.536 41.5083 111.484 47.1078C111.484 52.1936 111.277 53.5293 110.604 54.2999C110.086 54.8136 109.051 56.6116 108.275 58.3069C106.929 61.1323 106.825 61.9029 106.825 67.2969C106.825 73.9239 107.446 75.6705 111.121 79.7288C114.02 82.9139 117.333 84.2496 122.353 84.2496C127.271 84.2496 130.583 82.9653 133.585 79.8316C136.691 76.5952 137.83 73.4615 137.778 68.4271C137.623 59.9508 135.915 55.7896 132.757 56.0979C131.153 56.252 131.153 56.252 130.894 59.848C130.428 65.8071 128.668 67.8106 123.854 67.8106C121.836 67.8106 121.215 67.5538 119.714 66.064C118.109 64.4715 117.954 64.0091 117.954 61.4405C117.954 55.6355 120.852 53.5293 126.598 55.0704C130.066 56.0465 130.894 55.841 130.894 53.9916C130.894 52.3991 129.341 50.7038 127.012 49.8305C125.355 49.1627 120.283 49.0086 118.575 49.5223C117.643 49.8305 117.591 49.7278 118.057 47.1592C118.834 42.5871 118.937 42.3303 120.283 41.7138C122.457 40.6864 124.89 40.9946 128.565 42.6899C131.774 44.231 132.136 44.2824 134.155 43.6659C137.312 42.7412 141.453 38.3746 142.488 34.8814C143.575 31.2854 143.523 29.6415 142.281 28.5113C141.505 27.7921 140.884 27.6893 139.331 27.9976C136.898 28.5113 134.465 28.5113 128.823 28.0489C124.579 27.638 124.32 27.6893 121.215 29.2305Z" fill="#0E3C87"/>
<path id="Vector_9" d="M79.289 46.5941C73.8542 48.4949 69.1958 55.0191 68.3158 61.9029C66.7113 74.9513 73.8024 84.2496 85.3449 84.2496C90.2621 84.2496 93.7818 82.8625 96.8357 79.7802C99.786 76.7493 101.132 74.1293 101.908 69.9169C103.254 62.4166 100.304 52.9128 96.5769 52.9128C94.61 52.9128 94.0406 54.043 94.4029 57.1253C94.9723 61.5946 93.1089 64.7797 89.3822 65.7558C81.8252 67.8106 77.1151 58.461 82.8087 52.7587C84.2579 51.3203 84.5168 51.2689 87.3118 51.6285C88.9164 51.7827 91.1938 51.9881 92.3325 52.0395C94.2476 52.1423 94.4029 52.0395 94.5582 50.7038C94.7652 48.9058 93.9371 47.8784 91.2973 46.6969C88.7093 45.5153 82.4463 45.4639 79.289 46.5941Z" fill="#0E3C87"/>
<path id="Vector_10" d="M150.718 46.5427C149.631 47.0564 148.648 48.238 147.871 49.7791C146.784 51.9368 146.681 52.8101 146.732 59.848C146.784 71.9717 149.165 93.4451 150.821 96.5787C152.478 99.7638 154.6 99.8152 156.205 96.6815C157.188 94.7807 158.482 87.9997 159.155 81.5268C159.31 79.6261 159.621 78.0849 159.828 78.0849C159.983 78.1363 160.759 79.0096 161.484 80.0884C164.383 84.2495 171.111 85.5338 176.339 82.9139C180.791 80.7049 183.275 76.3897 184.31 69.249C186.122 56.5602 179.652 45.7208 170.18 45.7208C167.436 45.7208 163.14 48.0839 161.536 50.447L160.19 52.5018L159 49.8819C158.12 47.827 157.447 47.0564 156.049 46.4914C153.772 45.5153 152.788 45.5153 150.718 46.5427ZM170.594 62.4166C172.509 63.7009 173.441 65.5503 173.441 68.2216C173.441 74.2321 169.455 76.852 163.503 74.7458C161.743 74.1293 161.122 74.0779 160.501 74.5917C159.362 75.5677 160.19 65.3961 161.381 64.0091C163.658 61.3891 167.902 60.6699 170.594 62.4166Z" fill="#0E3C87"/>
<path id="Vector_11" d="M203.513 46.4914C198.027 48.1866 192.902 52.8101 190.832 57.9473C189.9 60.3104 189.693 61.9029 189.642 66.0126C189.642 70.5333 189.849 71.5094 191.039 74.078C193.006 78.3418 196.629 81.9378 200.201 83.2735C206.153 85.4825 213.71 83.6331 217.385 79.061C220.542 75.054 222.095 69.249 220.128 68.4785C219.662 68.3243 217.903 68.8381 216.194 69.66C212.002 71.6635 207.188 71.7662 204.238 69.9169C198.855 66.6291 198.7 56.6116 203.979 52.7587C205.17 51.8854 205.584 51.7827 206.722 52.2964C209.621 53.632 209.31 56.9712 205.946 61.0296C203.513 63.9577 204.031 65.4989 207.602 66.064C211.588 66.7318 216.971 63.8036 218.834 59.9508C220.025 57.5363 220.232 54.2999 219.352 52.0395C217.437 47.0051 210.087 44.4365 203.513 46.4914Z" fill="#0E3C87"/>
</g>
</g>
</svg>
