<svg width="74" height="91" viewBox="0 0 74 91" fill="none" xmlns="http://www.w3.org/2000/svg">
<g id="&#208;&#187;&#208;&#190;&#208;&#179;&#208;&#190;">
<path id="&#208;&#190;&#208;&#178;&#208;&#176;&#208;&#187;" fill-rule="evenodd" clip-rule="evenodd" d="M13.1428 11.0452C18.5118 5.5372 24.5003 2.28362 31.5729 1.0283C34.9285 0.439072 37.4065 0.413455 40.7621 0.90021C44.8405 1.48944 47.7057 2.41171 51.1903 4.23064C62.1606 10.0461 70.1624 21.9588 72.6662 36.254C73.3374 39.9687 73.5697 47.2188 73.1825 51.0104C71.9435 62.8462 67.194 73.1193 59.4761 80.7025C50.4934 89.5666 38.2841 92.6152 26.9009 88.8749C20.2413 86.6973 13.6591 81.676 9.09029 75.2969C5.21843 69.917 2.09513 62.5132 0.701263 55.3656C0.0817657 52.2145 0.00432847 51.2922 0.00432847 45.7329C-0.0214839 40.3786 0.0559533 39.1746 0.572201 36.4334C2.50813 25.9553 6.53487 17.8598 13.1428 11.0452Z" fill="white"/>
<g id="&#209;&#129;&#208;&#184;&#208;&#189;&#208;&#184;&#208;&#185;">
<path id="&#208;&#178;&#208;&#190;&#208;&#187;&#208;&#190;&#209;&#129;&#209;&#139;" d="M28.2431 9.50809C26.0749 10.8146 24.397 12.4799 24.0099 13.7608C23.7517 14.6062 24.2422 14.4781 24.6035 13.6327C24.9907 12.6848 26.7976 10.8659 28.2173 9.96923C29.0175 9.45686 29.5595 9.27753 30.1532 9.38C30.7985 9.45686 30.8502 9.45686 30.4372 9.25191C29.637 8.86763 29.224 8.91886 28.2431 9.50809Z" fill="#0E3C87"/>
<path id="&#208;&#178;&#208;&#190;&#208;&#187;&#208;&#190;&#209;&#129;&#209;&#139;_2" d="M22.5644 15.1186C21.9449 16.3227 21.8933 17.6036 22.4611 18.3978C23.029 19.2176 23.4162 18.8333 22.9516 17.9366C22.4095 16.8863 22.4611 15.5541 23.1064 14.7599C23.3904 14.4013 23.5194 14.0938 23.3646 14.0938C23.2097 14.0938 22.8483 14.555 22.5644 15.1186Z" fill="#0E3C87"/>
<path id="&#208;&#179;&#208;&#187;&#208;&#176;&#208;&#183;" d="M41.5365 20.5754C41.3042 21.1646 41.5365 23.0348 41.8979 23.3934C42.4141 23.9058 42.4916 23.3678 42.1044 21.7282C41.8463 20.5497 41.6656 20.2423 41.5365 20.5754Z" fill="#0E3C87"/>
<path id="&#209;&#131;&#209;&#133;&#208;&#190;" d="M23.4678 21.1902C24.0615 21.3439 24.6294 21.7794 24.1906 21.7794C23.8808 21.7794 23.1839 23.2653 23.4162 23.4703C23.4936 23.5471 23.7518 23.3166 23.9841 22.9579C24.5261 22.1381 24.8101 22.1381 25.5844 22.8554C25.9974 23.2397 26.1781 23.2909 26.1781 23.0348C26.1523 22.1637 24.6036 20.9853 23.5453 21.0365C23.029 21.0621 23.0032 21.0877 23.4678 21.1902Z" fill="#0E3C87"/>
<path id="&#208;&#179;&#208;&#187;&#208;&#176;&#208;&#183;_2" d="M30.6953 23.3678C30.4888 24.1364 30.9276 25.1099 31.4697 25.1099C31.9085 25.1099 31.9343 25.0074 31.6245 24.3926C31.4955 24.162 31.289 23.6752 31.1341 23.3166L30.876 22.6761L30.6953 23.3678Z" fill="#0E3C87"/>
<path id="&#208;&#178;&#208;&#181;&#209;&#129;&#208;&#189;&#209;&#131;&#209;&#136;&#208;&#186;&#208;&#184;" d="M44.1177 23.5728C44.0403 23.7009 44.1435 23.8289 44.3758 23.8289C44.6081 23.8289 44.7114 23.7009 44.634 23.5728C44.5565 23.4191 44.4275 23.3167 44.3758 23.3167C44.3242 23.3167 44.1951 23.4191 44.1177 23.5728Z" fill="#0E3C87"/>
<path id="&#208;&#178;&#208;&#181;&#209;&#129;&#208;&#189;&#209;&#131;&#209;&#136;&#208;&#186;&#208;&#184;_2" d="M45.2793 24.8537C45.2793 24.9818 45.4084 25.1099 45.5374 25.1099C45.6923 25.1099 45.7955 24.9818 45.7955 24.8537C45.7955 24.7001 45.6923 24.5976 45.5374 24.5976C45.4084 24.5976 45.2793 24.7001 45.2793 24.8537Z" fill="#0E3C87"/>
<path id="&#208;&#178;&#208;&#181;&#209;&#129;&#208;&#189;&#209;&#131;&#209;&#136;&#208;&#186;&#208;&#184;_3" d="M29.7918 26.647C29.7918 26.7751 29.9209 26.9032 30.05 26.9032C30.2048 26.9032 30.3081 26.7751 30.3081 26.647C30.3081 26.4934 30.2048 26.3909 30.05 26.3909C29.9209 26.3909 29.7918 26.4934 29.7918 26.647Z" fill="#0E3C87"/>
<path id="&#209;&#128;&#208;&#190;&#209;&#130;" d="M41.4074 27.6205C41.0977 28.9783 40.1942 30.1311 39.1359 30.5154C38.7487 30.6691 37.8195 30.7204 37.0709 30.6179C35.8836 30.4642 35.4964 30.2849 34.4123 29.2345C33.7153 28.5428 33.07 28.0816 33.0184 28.1841C32.941 28.2866 33.5088 28.9527 34.2832 29.67C35.8319 31.1303 37.3291 31.5658 39.0843 31.0278C40.633 30.5667 42.1818 28.5684 42.1818 27.0057C42.1818 25.9553 41.743 26.314 41.4074 27.6205Z" fill="#0E3C87"/>
<path id="&#208;&#178;&#208;&#181;&#209;&#129;&#208;&#189;&#209;&#131;&#209;&#136;&#208;&#186;&#208;&#184;_4" d="M27.5978 26.9032C27.5203 27.0313 27.6236 27.1594 27.8301 27.1594C28.0624 27.1594 28.2431 27.0313 28.2431 26.9032C28.2431 26.7495 28.1398 26.6471 28.0108 26.6471C27.8559 26.6471 27.6752 26.7495 27.5978 26.9032Z" fill="#0E3C87"/>
<path id="&#208;&#187;&#208;&#184;&#209;&#134;&#208;&#190;" d="M36.2449 6.25451C33.8702 7.22802 32.7861 7.86849 31.9859 8.71391L31.2115 9.55932L32.4247 8.63705C33.5605 7.79163 35.7029 6.69003 37.0451 6.28013C37.5872 6.1008 37.5614 6.17765 36.8128 7.04869C36.3482 7.56106 36.0126 8.04782 36.0643 8.09906C36.1159 8.15029 36.5289 8.07344 37.0193 7.91973C37.8195 7.63792 40.2201 7.71478 42.698 8.09906C43.8338 8.27839 44.0661 8.79076 43.2143 9.22628C42.5174 9.61056 42.569 10.0461 43.2917 9.86675C43.6531 9.76427 44.221 9.9436 44.8921 10.4047C46.6732 11.5576 47.525 12.941 47.9638 15.3748C48.0928 16.1689 48.0412 16.3227 47.3701 16.7069C46.8538 16.9887 46.286 17.0912 45.6149 16.9887C44.8921 16.8863 44.5307 16.9631 44.2726 17.2706C44.0919 17.5011 43.7047 17.6805 43.4208 17.6805C42.7497 17.6805 40.2717 15.3235 39.7038 14.1451C39.4715 13.6327 39.2134 13.3509 39.1618 13.5046C38.9811 14.0426 40.5556 16.5276 41.7946 17.6548C43.0852 18.8333 43.9629 18.987 44.7372 18.1672C45.2019 17.6548 45.3309 17.6548 46.5183 17.9366C47.5766 18.1672 47.7831 18.3209 47.6798 18.7052C47.5766 19.0895 47.654 19.1663 48.0928 19.0382C48.4284 18.9614 48.6349 19.0126 48.6349 19.192C48.6349 19.3713 48.764 19.4225 48.893 19.3457C49.0995 19.2176 49.0737 19.0382 48.8414 18.7564C48.5833 18.449 48.5833 18.3465 48.8414 18.2697C49.2802 18.116 49.2286 17.6805 48.7382 17.6805C48.5058 17.6805 48.4284 17.5524 48.5317 17.3986C48.6607 17.1937 48.5058 17.1425 48.0154 17.2193C47.5508 17.3218 47.3959 17.2706 47.5508 17.1168C47.6798 16.9887 48.2735 16.8094 48.8414 16.7326C49.8481 16.6045 49.9255 16.6301 50.3385 17.5011C50.6999 18.2697 50.7257 18.5515 50.4934 19.0895C50.1836 19.7812 48.8156 20.4985 47.8605 20.4985C47.3701 20.4985 47.3185 20.5754 47.525 21.3183C47.6282 21.7794 47.7315 23.086 47.7057 24.2132C47.7057 25.9809 47.5766 26.5445 46.9055 28.0048C45.8988 30.1311 43.9629 32.0782 42.0011 32.9748C38.2583 34.6913 32.5796 33.6921 29.1982 30.746C27.8559 29.5675 26.4879 27.0569 26.2555 25.3917C26.1265 24.4182 26.0749 24.3669 25.6619 24.7256C24.9907 25.3148 23.6743 25.2124 22.9516 24.4694C22.4353 23.9827 22.3062 23.5984 22.3062 22.548C22.3062 21.4464 22.4353 21.139 23.1581 20.3192C24.0099 19.3969 24.0099 19.3969 24.7068 19.858C25.7393 20.5241 28.4496 20.2936 30.2307 19.3713L31.5987 18.7052L31.4438 19.4738C31.0825 21.2158 33.1733 20.5497 35.9868 18.0135C37.6388 16.5276 38.3874 15.3492 38.6713 13.8376L38.8262 12.941L38.4132 13.9657C37.5356 16.0409 35.7803 17.8854 33.07 19.6019C32.1408 20.1911 31.9859 19.9861 32.3215 18.7052C32.6054 17.5267 32.4247 17.4243 31.3406 18.1928C29.6886 19.3457 26.5137 20.2167 26.2555 19.5762C26.2039 19.3969 25.6102 19.1663 24.9907 19.0639C23.9841 18.9102 23.7259 18.987 23.1581 19.4994C21.4028 21.1646 21.1447 23.4703 22.5644 24.9049C23.1839 25.4942 23.5194 25.6223 24.5777 25.6223H25.8425L26.0232 26.6726C26.7718 31.2328 31.702 34.4351 38.0518 34.4607C40.4782 34.4607 40.917 34.3839 42.2592 33.769C44.3242 32.7955 46.6473 30.541 47.6798 28.4659C48.4542 26.8776 48.5058 26.6214 48.5058 23.9314V21.0621L49.3318 20.7803C51.6291 19.9349 51.9131 17.1168 49.7706 16.2458C49.0737 15.964 48.893 15.7334 48.893 15.1442C48.893 13.479 46.3892 10.2254 44.8405 9.84113C44.35 9.71304 44.2468 9.55932 44.35 9.14942C44.6856 7.79163 43.7047 7.43297 39.6522 7.38173L37.2516 7.35611L37.6646 6.76688C38.0776 6.12642 38.1809 5.63966 37.8711 5.63966C37.7421 5.66528 37.0193 5.92147 36.2449 6.25451Z" fill="#0E3C87"/>
<path id="&#209;&#128;&#209;&#131;&#208;&#186;&#208;&#176;" fill-rule="evenodd" clip-rule="evenodd" d="M22.9257 77.3977L23.5969 77.9869C23.9582 78.3199 24.6035 78.7811 25.0424 78.986C25.9458 79.4472 31.9601 80.1645 36.4514 80.3694C39.0843 80.4975 39.4973 80.4463 40.3233 79.9851C40.9428 79.6521 42.0527 79.4215 43.395 79.2934C45.0986 79.1397 45.7439 78.9604 46.6215 78.3968C47.4475 77.8844 48.1961 77.6538 49.5383 77.5257C50.545 77.4233 51.8098 77.2183 52.3777 77.0646C53.1263 76.8853 54.1071 76.8853 56.0431 77.1158C58.8824 77.4745 59.4761 77.3208 59.4761 76.296C59.4761 75.5531 58.7275 74.2978 57.9016 73.5805C57.153 72.9656 57.153 72.94 57.5918 72.4532C58.0306 71.9665 58.0306 71.9152 57.4369 71.4541C56.7142 70.8649 55.1654 70.8136 53.8748 71.3516C53.3844 71.5566 52.9198 71.7359 52.8681 71.7359C52.7907 71.7359 53.0488 71.2748 53.436 70.7368C53.7974 70.1732 54.0555 69.4559 54.0039 69.1228C53.9264 68.6104 53.7716 68.5336 52.6874 68.4567C51.7324 68.4055 51.1645 68.5336 50.2611 69.0203C49.6158 69.379 49.0479 69.6864 48.9963 69.6864C48.9705 69.6864 48.893 69.3021 48.8414 68.8666C48.7898 68.2005 48.6349 67.9956 48.1703 67.9443C47.3701 67.8163 45.7181 68.9691 45.1244 70.0707C44.5565 71.1467 44.4017 71.1211 40.8912 69.5327C39.5489 68.9435 38.1292 68.3543 37.7421 68.2774C36.0901 67.8675 37.2774 67.0989 39.678 66.9965C41.9495 66.894 43.0594 66.4841 44.4791 65.2031C45.6665 64.1272 45.873 63.2049 45.0212 62.7694C44.6856 62.59 42.2592 62.4619 38.6197 62.4363L32.7603 62.3851L29.5337 63.2305C26.1523 64.1272 25.7909 64.3321 24.5777 65.9461C23.9324 66.8684 23.5452 67.0733 21.2221 67.8163C18.0988 68.841 14.3302 70.3781 13.7881 70.8649C13.53 71.1211 13.5042 71.3004 13.7107 71.5053C13.8914 71.6847 14.6658 71.4797 16.3952 70.7624C19.4927 69.4559 22.7967 68.303 22.9516 68.4567C23.029 68.5336 22.8999 68.9435 22.6676 69.4046C22.2804 70.1732 22.2804 70.2757 22.6418 70.6343C23.0032 70.993 23.1064 70.9417 23.6485 70.0451C24.0099 69.4815 24.6552 68.3286 25.1456 67.4576C25.6102 66.5866 26.2555 65.6899 26.5653 65.485C26.9008 65.2544 28.6303 64.742 30.4371 64.3065C33.2249 63.6404 34.2316 63.5379 37.1226 63.5379C41.5623 63.5379 43.9887 63.7685 43.8338 64.1784C43.524 64.947 41.5881 65.6643 39.265 65.818C37.0193 65.9717 36.9161 66.0229 36.2191 66.8684L35.4706 67.7394L34.309 67.1758C32.8635 66.4841 32.3731 66.4585 32.3731 67.0989C32.3731 67.6882 33.7411 68.3799 36.5031 69.1997C37.5614 69.5071 39.0327 70.0451 39.7296 70.4037C40.4524 70.7624 41.7688 71.326 42.698 71.6334L44.3758 72.2227L42.6206 73.0425C41.0977 73.7342 40.6589 73.8367 39.265 73.7342C37.9486 73.6573 37.3291 73.4524 35.8578 72.5813C33.5088 71.1979 31.2115 70.4806 29.0691 70.4294C26.7202 70.3781 26.6944 70.4037 26.6944 70.9417C26.6944 71.326 26.9783 71.4285 28.7077 71.5566C31.289 71.7872 32.4763 72.1458 35.5996 73.7854C38.1034 75.092 38.2325 75.1176 39.8845 75.0151C41.6914 74.887 44.1693 73.9135 45.2018 72.9656C45.5374 72.6582 45.873 72.0433 45.9504 71.5566C46.1311 70.5575 46.9571 69.4302 47.525 69.4302C48.1703 69.4302 47.6798 71.4285 46.6732 72.8888C45.0986 75.1944 43.6273 76.5779 41.4332 77.8844C39.3424 79.1141 39.1876 79.1653 37.3032 79.1653C35.548 79.1653 30.3339 78.7042 26.8492 78.2431C25.3521 78.0637 24.3712 77.2696 23.3904 75.4506C22.3579 73.5548 21.5061 73.9391 22.1772 75.9886C22.3321 76.4754 16.6121 78.9657 15.528 79.35L16.6926 80.1206L22.9257 77.3977ZM47.0345 76.501C47.9896 75.63 51.0096 72.0946 51.9389 70.7624C52.2744 70.3013 52.5068 69.8145 52.4551 69.6608C52.3003 69.174 50.0546 70.6087 49.2028 71.7359C47.7573 73.7086 45.7181 76.1936 44.8147 77.039C44.0403 77.8076 44.0145 77.8844 44.5049 77.8844C45.2277 77.8844 45.9762 77.4745 47.0345 76.501ZM49.6674 76.3473C51.3194 76.3473 52.4551 75.7581 54.2104 74.016C55.8366 72.402 55.914 72.2483 55.3203 72.2483C54.9331 72.2483 53.7458 72.8119 52.6616 73.5292C51.5775 74.2209 50.5966 74.8102 50.4934 74.8102C50.3643 74.8102 50.0288 75.1432 49.719 75.5787C49.3743 76.025 49.2297 76.2122 49.2752 76.2906C49.3081 76.3473 49.4401 76.3473 49.6674 76.3473ZM56.5851 75.9886C58.4436 76.1936 58.6243 75.9374 57.3853 74.7845C56.9465 74.3746 56.4302 74.0416 56.2754 74.0416C55.8366 74.0416 54.4685 75.5019 54.7524 75.6556C54.8815 75.7324 55.7075 75.8862 56.5851 75.9886Z" fill="#0E3C87"/>
</g>
<g id="&#208;&#186;&#209;&#128;&#208;&#176;&#209;&#129;&#208;&#189;&#209;&#139;&#208;&#185;">
<path id="V" d="M23.3129 32.0269C22.7967 32.2831 21.9965 32.9492 21.5318 33.4616C20.7575 34.3582 20.7058 34.4863 20.8865 35.716C21.1188 37.4837 22.203 40.1481 24.5519 44.5801C29.7144 54.3664 32.8893 58.7985 35.8577 60.2075C40.2975 62.3339 44.8663 57.7481 48.9704 47.0139C50.8031 42.1976 52.5067 36.5102 52.5067 35.178C52.5067 34.102 52.4035 33.8715 51.3452 32.8723C50.1062 31.7195 49.2802 31.3608 48.2993 31.617C47.5249 31.7964 47.2668 32.3856 46.3118 36.1772C43.395 47.7824 40.6847 54.059 38.568 54.059C37.6646 54.059 36.0384 52.3426 34.5155 49.7807C32.3989 46.2453 28.8626 38.739 26.9783 33.8459C26.0748 31.4633 25.223 31.0278 23.3129 32.0269Z" fill="#9C0D13"/>
<path id="&#208;&#186;&#208;&#184;&#209;&#129;&#209;&#130;&#209;&#140;" d="M8.23849 34.8706C8.62568 36.0747 8.39336 37.1251 7.23181 39.3027C5.88956 41.8133 5.7605 42.838 6.5865 44.3239C7.12856 45.2718 8.23849 46.1172 8.96124 46.1172C9.16774 46.1172 9.68399 46.4503 10.1228 46.8858C10.5874 47.2957 11.2069 47.6544 11.5167 47.6544C11.9813 47.68 12.3943 48.1411 13.2977 49.6526C16.834 55.5449 20.4219 60.9761 21.4028 61.924C23.2871 63.7685 24.8875 63.2818 24.8875 60.8736C24.8875 59.234 24.4745 58.3886 22.4353 55.8523C21.4803 54.6483 19.5185 51.8814 18.0472 49.7038C15.6467 46.0916 15.4143 45.6561 15.5434 44.7594C15.595 44.1702 15.5176 43.6322 15.3111 43.376C15.0788 43.1198 14.9497 42.2744 14.9497 41.0191C14.9497 39.3539 14.8465 38.8928 14.2528 37.8936C12.988 35.7417 10.8972 34.3326 9.01286 34.3326C8.18687 34.3326 8.08362 34.3839 8.23849 34.8706ZM11.0779 35.4598C12.9622 36.6895 14.5625 39.1489 14.5625 40.8142C14.5625 41.9158 13.9172 43.6578 13.5817 43.4529C13.4526 43.376 13.2719 42.9661 13.1687 42.5306C13.0912 42.0951 12.9105 41.7877 12.7815 41.8645C12.6782 41.9414 12.6524 42.505 12.7557 43.0942C12.8847 43.7091 12.9363 44.2471 12.8589 44.2983C12.6524 44.5033 11.1553 43.7091 10.8197 43.1967C10.51 42.7868 10.4325 42.7612 10.4325 43.0942C10.4325 43.3248 10.8197 43.8115 11.2585 44.1702L12.1104 44.8107L11.1295 45.2206C9.65817 45.8098 7.67062 45.0156 7.07693 43.5554C6.66393 42.5562 6.87043 41.5059 8.00618 39.2002C8.80636 37.535 8.90961 37.0994 8.80636 35.9722L8.6773 34.64L9.55492 34.845C10.0454 34.9731 10.7165 35.2293 11.0779 35.4598ZM14.9755 44.2214C15.182 44.99 14.4077 45.9123 12.9622 46.6552C11.8006 47.2445 11.1295 47.2701 10.6907 46.7577C10.4325 46.4503 10.4842 46.3478 11.0779 46.1172C11.4392 45.9891 11.8264 45.861 11.9297 45.861C12.0329 45.861 12.6266 45.3487 13.2719 44.7594C13.9172 44.1446 14.5109 43.6066 14.6142 43.6066C14.7174 43.581 14.8981 43.8372 14.9755 44.2214ZM15.4143 47.0139C15.8532 47.6287 15.8532 47.6544 15.0272 48.4229C13.943 49.3708 13.7365 49.3708 12.9105 48.3973L12.2394 47.6031L13.3235 47.0139C14.7174 46.2453 14.8465 46.2453 15.4143 47.0139ZM17.9956 51.036C19.0797 52.6244 20.7575 54.9301 21.7642 56.1598C23.6227 58.4654 24.2164 59.7976 24.0615 61.3091C23.9324 62.6157 23.2613 62.4876 21.6609 60.848C20.8866 60.0538 20.0089 58.9778 19.7508 58.4654C19.4669 57.9531 18.3311 56.1598 17.1954 54.4945L15.1562 51.4715L15.879 50.703C16.292 50.2675 16.6275 49.8063 16.6275 49.6782C16.6275 49.2427 16.1113 49.4477 15.6983 50.0881C15.2078 50.8311 14.8723 50.8823 14.4335 50.2931C14.1495 49.9088 14.227 49.7295 15.0272 49.0121C15.5692 48.551 16.008 48.1923 16.0338 48.1667C16.0596 48.1667 16.9373 49.4733 17.9956 51.036Z" fill="#9C0D13"/>
<path id="&#208;&#186;&#208;&#176;&#209;&#128;&#208;&#176;&#208;&#189;&#208;&#180;&#208;&#176;&#209;&#136;" d="M62.8059 35.3317C61.8509 35.6904 60.9216 36.1515 60.7151 36.3309C60.5086 36.4846 59.9407 37.4837 59.4761 38.4828C58.9857 39.5076 57.9532 41.4546 57.1788 42.7868C56.3786 44.1446 54.3911 47.8593 52.7649 51.0616C50.003 56.4416 49.7448 56.8771 49.0995 56.8771C48.7123 56.8771 48.2219 57.0564 47.9896 57.287C47.6282 57.6456 47.6282 57.7737 47.938 58.2349C48.2477 58.696 48.1961 58.9009 47.4217 60.0282C46.4925 61.4116 46.3634 62.0264 46.9571 62.5132C47.9122 63.3074 51.3968 65.0751 51.8356 65.0238C52.481 64.9213 53.2295 63.8966 53.436 62.8206C53.6683 61.6422 53.1005 61.7702 52.7649 62.9999C52.3777 64.4346 51.9131 64.742 50.8548 64.2553C49.5642 63.6404 47.0862 62.0008 47.0862 61.7702C47.0862 61.4884 48.6607 59.1828 48.8414 59.1828C48.9447 59.1828 50.003 59.7464 51.2161 60.4637C54.1588 62.1801 55.4494 62.1289 55.2945 60.31C55.2687 59.772 55.8882 58.491 57.566 55.7242C58.8566 53.5979 61.283 49.2171 62.9608 45.9891C66.0067 40.0968 66.0067 40.0968 66.1357 37.9961C66.2132 36.6383 66.1357 35.7416 65.955 35.5367C65.7485 35.2805 65.7743 35.1012 65.9808 34.8962C66.5487 34.3326 64.6128 34.5888 62.8059 35.3317ZM63.6319 37.2788C64.1998 37.7655 64.8193 38.1754 65.0258 38.1754C65.6453 38.1754 65.4904 39.4051 64.7677 40.1224L64.1224 40.7629L63.3222 40.1993C62.6252 39.7125 62.5478 39.5332 62.651 38.7903C62.8317 37.7911 62.5994 37.6887 61.9283 38.4316C60.9216 39.5332 60.457 38.8927 61.1281 37.2788C61.6185 36.1003 62.3413 36.1003 63.6319 37.2788ZM61.2314 39.6613L61.7734 39.5076L61.2572 40.8398C60.9732 41.5571 60.4054 42.5306 60.044 43.0174C58.7276 44.6569 58.0306 45.7329 57.2821 47.3982C55.2429 51.7533 51.7324 57.9018 51.2678 57.9018C51.1645 57.9018 50.8548 57.7481 50.5966 57.5688C50.1837 57.2614 50.3127 56.9539 52.197 53.4185C53.307 51.2922 55.0106 48.0642 55.9914 46.2453C59.8891 38.8415 59.9407 38.7646 60.3796 39.3539C60.5602 39.6357 60.8958 39.7382 61.2314 39.6613ZM64.0707 41.2497C64.587 41.2497 64.4321 41.6596 62.2122 46.066C60.2505 49.96 58.0564 53.8797 54.9073 59.1315C54.7524 59.4133 54.5201 59.3877 53.7974 59.029C53.307 58.7985 52.8423 58.5679 52.7907 58.5167C52.7391 58.4654 53.2295 57.5944 53.849 56.5696C56.0173 53.0855 58.0048 49.6014 59.1147 47.3725C59.7084 46.1685 60.7409 44.4264 61.3862 43.5041C62.651 41.7108 62.8059 41.2497 62.1864 41.2497C61.7734 41.2497 61.696 41.0191 61.9541 40.353C62.109 39.9943 62.2122 40.02 62.8059 40.5836C63.1931 40.9422 63.761 41.2497 64.0707 41.2497ZM58.4178 46.8858C57.7209 48.2948 57.1014 49.4476 57.0498 49.4476C56.8691 49.4476 58.5985 45.6817 59.1147 44.8875C59.8633 43.7603 59.6568 44.3751 58.4178 46.8858ZM50.6999 58.0299C51.0613 58.363 52.1196 59.0034 53.0746 59.4389C54.6234 60.1563 54.8041 60.31 54.5718 60.7455C54.1588 61.4628 53.6167 61.3347 51.3452 59.9257C50.2095 59.234 49.0737 58.5935 48.8414 58.5167C48.3768 58.363 48.2219 57.6456 48.5575 57.287C48.8672 56.9795 50.003 57.3894 50.6999 58.0299Z" fill="#9C0D13"/>
<path id="&#208;&#190;&#208;&#178;&#208;&#176;&#208;&#187;_2" fill-rule="evenodd" clip-rule="evenodd" d="M13.1428 11.0452C18.5118 5.53719 24.5003 2.28361 31.5729 1.02829C34.9285 0.439064 37.4065 0.413447 40.7621 0.900202C44.8405 1.48943 47.7057 2.4117 51.1903 4.23063C62.1606 10.0461 70.1624 21.9588 72.6662 36.254C73.3374 39.9687 73.5697 47.2188 73.1825 51.0104C71.9435 62.8462 67.194 73.1193 59.4761 80.7025C50.4934 89.5666 38.2841 92.6152 26.9009 88.8748C20.2413 86.6973 13.6591 81.676 9.09029 75.2969C5.21843 69.917 2.09513 62.5132 0.701263 55.3656C0.0817657 52.2145 0.00432847 51.2922 0.00432847 45.7329C-0.0214839 40.3786 0.0559533 39.1746 0.572201 36.4334C2.50813 25.9553 6.53487 17.8598 13.1428 11.0452ZM67.8135 27.4156C62.9866 14.6062 52.9198 5.35786 41.5365 3.33398C39.7812 3.02656 35.3931 2.79599 34.4381 2.97532C34.2474 3.00235 33.834 3.06504 33.3344 3.14081C32.887 3.20865 32.3704 3.28698 31.8826 3.3596C21.2996 4.92234 11.465 13.479 6.19931 25.6735C-0.0214837 40.1737 1.08845 57.8762 9.09029 71.0955C10.3293 73.1193 11.9555 75.2969 13.9688 77.5514L15.6208 79.3959L16.6275 80.0364L17.3245 80.7537C17.7116 81.1636 18.8474 82.0347 19.8541 82.752C27.2622 87.8245 35.7803 89.336 44.2468 87.0815C51.8356 85.0577 59.4245 78.986 64.174 71.0955C71.8144 58.4142 73.2083 41.762 67.8135 27.4156Z" fill="#9C0D13"/>
</g>
</g>
</svg>
