<svg width="33" height="25" viewBox="0 0 33 25" fill="none" xmlns="http://www.w3.org/2000/svg">
<g id="Group 7">
<rect id="Rectangle 5" x="17.75" y="10.4722" width="14.5" height="13.7778" stroke="black" stroke-width="1.5"/>
<rect id="Rectangle 6" x="1.75" y="0.75" width="18.5" height="6.83333" fill="white" stroke="black" stroke-width="1.5"/>
<path id="Ellipse 8" d="M30.9167 4.16667C30.9167 6.08279 29.433 7.58333 27.6667 7.58333C25.9003 7.58333 24.4167 6.08279 24.4167 4.16667C24.4167 2.25054 25.9003 0.75 27.6667 0.75C29.433 0.75 30.9167 2.25054 30.9167 4.16667Z" fill="white" stroke="black" stroke-width="1.5"/>
<path id="Ellipse 11" d="M28.5 20.8334C28.5 22.8779 26.914 24.5001 25 24.5001C23.086 24.5001 21.5 22.8779 21.5 20.8334C21.5 18.7889 23.086 17.1667 25 17.1667C26.914 17.1667 28.5 18.7889 28.5 20.8334Z" fill="white" stroke="black"/>
<path id="Ellipse 10" d="M27.1667 15.2778C27.1667 16.5552 26.1776 17.5556 25 17.5556C23.8224 17.5556 22.8333 16.5552 22.8333 15.2778C22.8333 14.0004 23.8224 13 25 13C26.1776 13 27.1667 14.0004 27.1667 15.2778Z" fill="white" stroke="black"/>
<path id="Ellipse 9" d="M12.25 20.8334C12.25 22.7495 10.7664 24.2501 9 24.2501C7.23364 24.2501 5.75 22.7495 5.75 20.8334C5.75 18.9173 7.23364 17.4167 9 17.4167C10.7664 17.4167 12.25 18.9173 12.25 20.8334Z" fill="white" stroke="black" stroke-width="1.5"/>
<path id="Line 7" d="M1 11.4583L15.6667 11.4583" stroke="black" stroke-width="1.5" stroke-linecap="round"/>
<path id="Line 8" d="M1 14.2361L15.6667 14.2361" stroke="black" stroke-width="1.5" stroke-linecap="round"/>
</g>
</svg>
