<svg width="32" height="32" viewBox="0 0 32 32" fill="none" xmlns="http://www.w3.org/2000/svg">
<g id="&#208;&#184;&#208;&#186;&#208;&#190;&#208;&#189;&#208;&#186;&#208;&#176; &#208;&#186;&#208;&#190;&#208;&#189;&#209;&#132;&#208;&#181;&#209;&#128;&#208;&#181;&#208;&#189;&#209;&#134;&#208;&#184;&#208;&#184;" clip-path="url(#clip0_602_1532)">
<g id="layer1">
<path id="path852" d="M7.99805 0C6.89871 0 6.00098 0.901657 6.00098 2.00095V10.5009C6.00457 10.9437 6.54042 11.1637 6.85449 10.8514L8.69922 8.99794H12.999V11.4999C12.999 12.5992 13.9006 13.5008 15 13.5008H23.3008L25.1455 15.3533C25.4608 15.6668 25.9978 15.4435 25.998 14.9988V6.49992C25.998 5.40063 25.0964 4.49897 23.9971 4.49897H19V2.00095C19 0.901665 18.1003 0 17.001 0H7.99805ZM7.99805 0.999988H17.001C17.5636 0.999988 18.001 1.43833 18.001 2.00095V7.00187C18.001 7.56449 17.5636 7.99795 17.001 7.99795H8.49316C8.36012 7.99807 8.23244 8.05102 8.13867 8.14541L7.00195 9.28602V2.00095C7.00195 1.43834 7.43542 0.999988 7.99805 0.999988ZM10.5 3.99995C10.2239 3.99995 10 4.22382 10 4.49995C10 4.77607 10.2239 4.99994 10.5 4.99994C10.7761 4.99994 11 4.77607 11 4.49995C11 4.22382 10.7761 3.99995 10.5 3.99995ZM12.5 3.99995C12.2239 3.99995 12 4.22382 12 4.49995C12 4.77607 12.2239 4.99994 12.5 4.99994C12.7761 4.99994 12.999 4.77607 12.999 4.49995C12.999 4.22382 12.7761 3.99995 12.5 3.99995ZM14.499 3.99995C14.2229 3.99995 14 4.22382 14 4.49995C14 4.77607 14.2229 4.99994 14.499 4.99994C14.7752 4.99994 15 4.77607 15 4.49995C15 4.22382 14.7752 3.99995 14.499 3.99995ZM20 7.99795H22.499C22.7753 7.9989 22.9991 8.22367 22.998 8.4999C22.9971 8.77468 22.7738 8.99699 22.499 8.99794H20C19.7238 8.99903 19.499 8.77612 19.498 8.4999C19.497 8.22223 19.7223 7.99685 20 7.99795ZM16.4854 9.9989H22.499C22.7753 9.99985 22.9991 10.2246 22.998 10.5009C22.9971 10.7756 22.7738 10.9979 22.499 10.9989H16.498C16.2232 10.9979 16.0009 10.7756 16 10.5009C15.999 10.2333 16.2084 10.0132 16.4854 9.9989ZM4.49902 11.9979C3.12424 11.9979 2.00098 13.1261 2.00098 14.5008C2.00098 15.8755 3.12424 16.9998 4.49902 16.9998C5.87381 16.9998 7.00195 15.8755 7.00195 14.5008C7.00195 13.1261 5.87381 11.9979 4.49902 11.9979ZM9.99902 15.4969C9.79667 15.4974 9.614 15.6203 9.53711 15.8074L7.55957 20.5232L6.89062 19.6863C6.53978 19.2478 6.27664 18.8385 5.83887 18.5086C5.4011 18.1786 4.81534 17.9998 4 17.9998H3.00098C1.34762 17.9998 0 19.3475 0 21.0007V24.4997C0 26.43 1.56868 27.9977 3.49902 27.9977H4.42578L3.03809 31.3053C2.89942 31.635 3.1413 31.9999 3.49902 31.9996C11.833 32.0009 20.1683 31.9986 28.501 31.9986C30.4313 31.9987 32 30.4309 32 28.5006V24.9977C32 23.3445 30.6524 22.0007 28.999 22.0007H27.998C27.1827 22.0007 26.5979 22.1767 26.1602 22.5066C25.7442 22.8139 25.3697 23.3586 25.0342 23.781L22.4746 15.8445C22.4085 15.639 22.2178 15.4984 22.002 15.4969H9.99902ZM27.999 15.9988C26.6242 15.9988 25.501 17.1231 25.501 18.4978C25.501 19.8725 26.6242 21.0007 27.999 21.0007C29.3738 21.0007 30.498 19.8725 30.498 18.4978C30.498 17.1231 29.3738 15.9988 27.999 15.9988ZM10.3311 16.4969H21.6367L24.2852 24.7175L23.2607 25.9977H22.1592L22.7842 23.8239C22.8589 23.559 22.706 23.2837 22.4414 23.2077C22.1753 23.1306 21.8972 23.2841 21.8213 23.5505L21.6924 23.9968H17.499C17.3098 23.9971 17.1362 24.1048 17.0518 24.2741L15.0518 28.2751C14.8859 28.6072 15.1268 28.9981 15.498 28.9987H22.002H25.501C25.5553 28.9986 25.6095 28.9892 25.6602 28.9723L26.3008 30.9987H4.25195L6.76953 24.9978H10.501H14C14.1078 24.9976 14.2125 24.9627 14.2988 24.8981L16.2988 23.3991C16.3657 23.3491 16.4193 23.2837 16.4541 23.2077L18.29 19.2117C18.3153 19.1522 18.3289 19.087 18.3291 19.0183C18.3302 18.7421 18.1073 18.5173 17.8311 18.5164H12.3467C12.1662 18.5164 11.9997 18.614 11.9111 18.7713L10.0635 22.0007H8.74024L8.27149 21.4138L10.3311 16.4969ZM3.00098 18.9998H4C4.68466 18.9998 4.98246 19.1143 5.2373 19.3064C5.49216 19.4985 5.72971 19.837 6.1084 20.3103L8.10938 22.8122C8.20505 22.9299 8.34835 22.9978 8.5 22.9968H10.501C10.7866 22.9968 10.998 23.2131 10.998 23.4987C10.998 23.7844 10.7866 23.9968 10.501 23.9968H6.70508L5.35156 22.6462C5.15655 22.4524 4.8415 22.4524 4.64648 22.6462C4.45264 22.8412 4.45264 23.1563 4.64648 23.3513L5.86328 24.571L4.8457 26.9977H3.49902C2.10539 26.9977 1 25.8933 1 24.4997V21.0007C1 19.8841 1.88432 18.9998 3.00098 18.9998ZM11.9072 22.9968H15.1689L13.834 23.9968H11.9131C11.9687 23.8408 11.998 23.6729 11.998 23.4987C11.998 23.3225 11.964 23.1544 11.9072 22.9968ZM28.999 22.9968C30.1157 22.9968 30.999 23.8812 30.999 24.9977V28.5006C30.999 29.8942 29.8946 30.9987 28.501 30.9987H27.3623L26.4717 28.234L27.3525 27.3522C27.5488 27.1568 27.5488 26.8387 27.3525 26.6432C27.1571 26.4469 26.839 26.4469 26.6436 26.6432L25.2939 27.9977H22.001H21.499C21.2134 27.9977 21.001 27.7853 21.001 27.4997C21.001 27.214 21.2134 26.9977 21.499 26.9977H23.5C23.6523 26.9978 23.7957 26.9283 23.8906 26.8093L25.8906 24.3112C26.2693 23.8379 26.5069 23.4994 26.7617 23.3073C27.0166 23.1153 27.3144 22.9968 27.999 22.9968L28.999 22.9968ZM17.8086 24.9977H21.4072L21.1045 26.0583C20.4726 26.235 20 26.8149 20 27.4997C20 27.6738 20.0313 27.8417 20.0869 27.9977H16.3105L17.8086 24.9977Z" fill="black"/>
</g>
</g>
<defs>
<clipPath id="clip0_602_1532">
<rect width="32" height="32" fill="white"/>
</clipPath>
</defs>
</svg>
