<svg width="32" height="32" viewBox="0 0 32 32" fill="none" xmlns="http://www.w3.org/2000/svg">
<g id="Content / document layout">
<path id="Vector" d="M17.3333 23.9999H4.00001C3.64638 23.9999 3.30724 24.1404 3.0572 24.3904C2.80715 24.6405 2.66667 24.9796 2.66667 25.3333C2.66667 25.6869 2.80715 26.026 3.0572 26.2761C3.30724 26.5261 3.64638 26.6666 4.00001 26.6666H17.3333C17.687 26.6666 18.0261 26.5261 18.2761 26.2761C18.5262 26.026 18.6667 25.6869 18.6667 25.3333C18.6667 24.9796 18.5262 24.6405 18.2761 24.3904C18.0261 24.1404 17.687 23.9999 17.3333 23.9999ZM4.00001 10.6666H14.6667C15.0203 10.6666 15.3594 10.5261 15.6095 10.2761C15.8595 10.026 16 9.68687 16 9.33325C16 8.97963 15.8595 8.64049 15.6095 8.39044C15.3594 8.14039 15.0203 7.99992 14.6667 7.99992H4.00001C3.64638 7.99992 3.30724 8.14039 3.0572 8.39044C2.80715 8.64049 2.66667 8.97963 2.66667 9.33325C2.66667 9.68687 2.80715 10.026 3.0572 10.2761C3.30724 10.5261 3.64638 10.6666 4.00001 10.6666ZM4.00001 15.9999H14.6667C15.0203 15.9999 15.3594 15.8594 15.6095 15.6094C15.8595 15.3593 16 15.0202 16 14.6666C16 14.313 15.8595 13.9738 15.6095 13.7238C15.3594 13.4737 15.0203 13.3333 14.6667 13.3333H4.00001C3.64638 13.3333 3.30724 13.4737 3.0572 13.7238C2.80715 13.9738 2.66667 14.313 2.66667 14.6666C2.66667 15.0202 2.80715 15.3593 3.0572 15.6094C3.30724 15.8594 3.64638 15.9999 4.00001 15.9999ZM28 18.6666H4.00001C3.64638 18.6666 3.30724 18.8071 3.0572 19.0571C2.80715 19.3072 2.66667 19.6463 2.66667 19.9999C2.66667 20.3535 2.80715 20.6927 3.0572 20.9427C3.30724 21.1928 3.64638 21.3333 4.00001 21.3333H28C28.3536 21.3333 28.6928 21.1928 28.9428 20.9427C29.1929 20.6927 29.3333 20.3535 29.3333 19.9999C29.3333 19.6463 29.1929 19.3072 28.9428 19.0571C28.6928 18.8071 28.3536 18.6666 28 18.6666ZM28 5.33325H20C19.6464 5.33325 19.3072 5.47373 19.0572 5.72378C18.8071 5.97382 18.6667 6.31296 18.6667 6.66659V14.6666C18.6667 15.0202 18.8071 15.3593 19.0572 15.6094C19.3072 15.8594 19.6464 15.9999 20 15.9999H28C28.3536 15.9999 28.6928 15.8594 28.9428 15.6094C29.1929 15.3593 29.3333 15.0202 29.3333 14.6666V6.66659C29.3333 6.31296 29.1929 5.97382 28.9428 5.72378C28.6928 5.47373 28.3536 5.33325 28 5.33325ZM26.6667 13.3333H21.3333V7.99992H26.6667V13.3333Z" fill="black"/>
</g>
</svg>
