<svg width="32" height="32" viewBox="0 0 32 32" fill="none" xmlns="http://www.w3.org/2000/svg">
<g id="&#208;&#184;&#208;&#186;&#208;&#190;&#208;&#189;&#208;&#186;&#208;&#176; &#209;&#134;&#208;&#178;&#208;&#181;&#209;&#130;&#208;&#190;&#208;&#186;">
<path id="Vector" d="M29.4173 10.968C26.9422 10.3565 24.3298 10.6547 22.056 11.808C21.2404 8.72986 19.3566 6.04214 16.7413 4.22533C16.5219 4.07858 16.2639 4.00024 16 4.00024C15.7361 4.00024 15.478 4.07858 15.2587 4.22533C12.6432 6.04332 10.759 8.73179 9.94266 11.8107C7.66965 10.655 5.05669 10.3559 2.58133 10.968C2.33879 11.03 2.11863 11.1591 1.94602 11.3404C1.77342 11.5218 1.65535 11.748 1.60533 11.9933C1.18979 14.1443 1.27184 16.3618 1.8452 18.4761C2.41857 20.5905 3.46805 22.5457 4.91333 24.192C8.04799 27.708 11.8307 28 15.7547 28H16.2293C20.1587 28 23.944 27.708 27.0827 24.1933C28.5306 22.5479 29.5824 20.5927 30.1574 18.4777C30.7324 16.3627 30.8154 14.1441 30.4 11.992C30.3492 11.7461 30.2301 11.5196 30.0562 11.3384C29.8824 11.1572 29.6609 11.0288 29.4173 10.968ZM16 6.99333C17.9059 8.62034 19.2079 10.8421 19.696 13.3C19.1763 13.7122 18.6908 14.1657 18.244 14.656C17.3341 15.6605 16.5779 16.7941 16 18.02C15.4197 16.7942 14.6617 15.6607 13.7507 14.656C13.3047 14.1684 12.8205 13.7172 12.3027 13.3067C12.7899 10.8462 14.0925 8.62199 16 6.99333ZM14.6107 25.3227C11.5813 25.256 9.04666 24.8213 6.904 22.4173C5.8295 21.1923 5.02318 19.7559 4.53683 18.2007C4.05048 16.6454 3.89487 15.0056 4.07999 13.3867C5.51818 13.239 6.97062 13.4464 8.31004 13.9906C9.64945 14.5348 10.835 15.3992 11.7627 16.508C12.8129 17.7057 13.6072 19.1054 14.097 20.6212C14.5867 22.137 14.7615 23.7369 14.6107 25.3227ZM25.092 22.4173C22.9453 24.8173 20.408 25.256 17.3733 25.3227C17.2223 23.7369 17.3973 22.137 17.8875 20.6213C18.3778 19.1056 19.1729 17.7063 20.224 16.5093C21.0509 15.5379 22.0733 14.7516 23.2246 14.2018C24.3758 13.6521 25.63 13.3511 26.9053 13.3187C27.2447 13.3184 27.5838 13.3416 27.92 13.388C28.105 15.0071 27.9489 16.6469 27.4618 18.202C26.9748 19.7572 26.1675 21.1931 25.092 22.4173Z" fill="black"/>
</g>
</svg>
