<svg width="200" height="66" viewBox="0 0 200 66" fill="none" xmlns="http://www.w3.org/2000/svg">
<g id="&#208;&#187;&#208;&#190;&#208;&#179;&#208;&#190;&#209;&#130;&#208;&#184;&#208;&#191;">
<g clip-path="url(#clip0_727_347)">
<g id="&#208;&#187;&#208;&#190;&#208;&#179;&#208;&#190;">
<path id="&#208;&#190;&#208;&#178;&#208;&#176;&#208;&#187;" fill-rule="evenodd" clip-rule="evenodd" d="M8.7619 10.0301C12.3412 6.35806 16.3335 4.18901 21.0486 3.35213C23.2857 2.95931 24.9377 2.94223 27.1747 3.26674C29.8937 3.65956 31.8038 4.2744 34.1269 5.48702C41.4404 9.36399 46.775 17.3058 48.4442 26.8359C48.8916 29.3124 49.0465 34.1458 48.7883 36.6735C47.9623 44.5641 44.796 51.4128 39.6507 56.4683C33.6623 62.3776 25.5228 64.4101 17.9339 61.9165C13.4942 60.4648 9.10606 57.1173 6.0602 52.8646C3.47896 49.2779 1.39676 44.3421 0.467509 39.577C0.0545105 37.4763 0.00288565 36.8614 0.00288565 33.1552C-0.0143226 29.5857 0.0373022 28.783 0.381468 26.9555C1.67209 19.9701 4.35658 14.5731 8.7619 10.0301Z" fill="white"/>
<g id="&#209;&#129;&#208;&#184;&#208;&#189;&#208;&#184;&#208;&#185;">
<path id="&#208;&#178;&#208;&#190;&#208;&#187;&#208;&#190;&#209;&#129;&#209;&#139;" d="M18.8287 9.00509C17.3832 9.87613 16.2647 10.9863 16.0066 11.8402C15.8345 12.4038 16.1614 12.3184 16.4024 11.7548C16.6605 11.1229 17.8651 9.91029 18.8115 9.31252C19.345 8.97093 19.7064 8.85138 20.1021 8.9197C20.5324 8.97093 20.5668 8.97093 20.2914 8.8343C19.758 8.57811 19.4826 8.61227 18.8287 9.00509Z" fill="#0E3C87"/>
<path id="&#208;&#178;&#208;&#190;&#208;&#187;&#208;&#190;&#209;&#129;&#209;&#139;_2" d="M15.043 12.7457C14.63 13.5484 14.5956 14.4023 14.9741 14.9318C15.3527 15.4783 15.6108 15.2221 15.3011 14.6244C14.9397 13.9241 14.9741 13.036 15.4043 12.5066C15.5936 12.2675 15.6797 12.0625 15.5764 12.0625C15.4732 12.0625 15.2323 12.3699 15.043 12.7457Z" fill="#0E3C87"/>
<path id="&#208;&#179;&#208;&#187;&#208;&#176;&#208;&#183;" d="M27.6911 16.3835C27.5362 16.7764 27.6911 18.0231 27.932 18.2622C28.2761 18.6038 28.3278 18.2452 28.0696 17.1521C27.8976 16.3665 27.7771 16.1615 27.6911 16.3835Z" fill="#0E3C87"/>
<path id="&#209;&#131;&#209;&#133;&#208;&#190;" d="M15.6453 16.7933C16.041 16.8958 16.4196 17.1862 16.1271 17.1862C15.9206 17.1862 15.456 18.1768 15.6108 18.3134C15.6625 18.3646 15.8345 18.2109 15.9894 17.9718C16.3508 17.4253 16.5401 17.4253 17.0563 17.9035C17.3317 18.1597 17.4521 18.1938 17.4521 18.023C17.4349 17.4424 16.4024 16.6567 15.6969 16.6909C15.3527 16.7079 15.3355 16.725 15.6453 16.7933Z" fill="#0E3C87"/>
<path id="&#208;&#179;&#208;&#187;&#208;&#176;&#208;&#183;_2" d="M20.4635 18.2449C20.3259 18.7572 20.6184 19.4062 20.9798 19.4062C21.2723 19.4062 21.2895 19.3379 21.083 18.928C20.997 18.7743 20.8593 18.4498 20.7561 18.2107L20.584 17.7837L20.4635 18.2449Z" fill="#0E3C87"/>
<path id="&#208;&#178;&#208;&#181;&#209;&#129;&#208;&#189;&#209;&#131;&#209;&#136;&#208;&#186;&#208;&#184;" d="M29.4118 18.382C29.3602 18.4674 29.4291 18.5527 29.5839 18.5527C29.7388 18.5527 29.8076 18.4674 29.756 18.382C29.7044 18.2795 29.6183 18.2112 29.5839 18.2112C29.5495 18.2112 29.4635 18.2795 29.4118 18.382Z" fill="#0E3C87"/>
<path id="&#208;&#178;&#208;&#181;&#209;&#129;&#208;&#189;&#209;&#131;&#209;&#136;&#208;&#186;&#208;&#184;_2" d="M30.1862 19.2355C30.1862 19.3209 30.2722 19.4062 30.3582 19.4062C30.4615 19.4062 30.5303 19.3209 30.5303 19.2355C30.5303 19.133 30.4615 19.0647 30.3582 19.0647C30.2722 19.0647 30.1862 19.133 30.1862 19.2355Z" fill="#0E3C87"/>
<path id="&#208;&#178;&#208;&#181;&#209;&#129;&#208;&#189;&#209;&#131;&#209;&#136;&#208;&#186;&#208;&#184;_3" d="M19.8612 20.4313C19.8612 20.5167 19.9472 20.6021 20.0333 20.6021C20.1365 20.6021 20.2054 20.5167 20.2054 20.4313C20.2054 20.3288 20.1365 20.2605 20.0333 20.2605C19.9472 20.2605 19.8612 20.3288 19.8612 20.4313Z" fill="#0E3C87"/>
<path id="&#209;&#128;&#208;&#190;&#209;&#130;" d="M27.605 21.08C27.3985 21.9852 26.7962 22.7538 26.0906 23.01C25.8325 23.1125 25.213 23.1466 24.714 23.0783C23.9224 22.9758 23.6643 22.8563 22.9415 22.156C22.4769 21.6949 22.0467 21.3875 22.0123 21.4558C21.9607 21.5241 22.3392 21.9682 22.8555 22.4464C23.888 23.4199 24.8861 23.7102 26.0562 23.3516C27.0887 23.0441 28.1212 21.712 28.1212 20.6701C28.1212 19.9699 27.8287 20.209 27.605 21.08Z" fill="#0E3C87"/>
<path id="&#208;&#178;&#208;&#181;&#209;&#129;&#208;&#189;&#209;&#131;&#209;&#136;&#208;&#186;&#208;&#184;_4" d="M18.3985 20.6022C18.3469 20.6876 18.4157 20.7729 18.5534 20.7729C18.7082 20.7729 18.8287 20.6876 18.8287 20.6022C18.8287 20.4997 18.7599 20.4314 18.6738 20.4314C18.5706 20.4314 18.4501 20.4997 18.3985 20.6022Z" fill="#0E3C87"/>
<path id="&#208;&#187;&#208;&#184;&#209;&#134;&#208;&#190;" d="M24.1633 6.83649C22.5802 7.4855 21.8574 7.91248 21.324 8.47609L20.8077 9.0397L21.6165 8.42485C22.3737 7.86124 23.802 7.12684 24.6968 6.85357C25.0582 6.73402 25.041 6.78525 24.5419 7.36594C24.2322 7.70753 24.0085 8.03203 24.0429 8.06619C24.0773 8.10035 24.3526 8.04911 24.6796 7.94663C25.213 7.75876 26.8134 7.81 28.4654 8.06619C29.2226 8.18574 29.3774 8.52733 28.8096 8.81767C28.3449 9.07386 28.3794 9.3642 28.8612 9.24465C29.1021 9.17633 29.4807 9.29589 29.9281 9.60331C31.1155 10.3719 31.6833 11.2941 31.9759 12.9167C32.0619 13.4461 32.0275 13.5486 31.5801 13.8048C31.2359 13.9927 30.8573 14.061 30.4099 13.9927C29.9281 13.9243 29.6872 13.9756 29.5151 14.1805C29.3946 14.3342 29.1365 14.4538 28.9472 14.4538C28.4998 14.4538 26.8478 12.8825 26.4692 12.0969C26.3144 11.7553 26.1423 11.5674 26.1079 11.6699C25.9874 12.0285 27.0371 13.6852 27.8631 14.4367C28.7235 15.2223 29.3086 15.3248 29.8249 14.7783C30.1346 14.4367 30.2206 14.4367 31.0122 14.6246C31.7178 14.7783 31.8554 14.8808 31.7866 15.137C31.7178 15.3931 31.7694 15.4444 32.0619 15.359C32.2856 15.3077 32.4233 15.3419 32.4233 15.4615C32.4233 15.581 32.5093 15.6152 32.5954 15.5639C32.733 15.4785 32.7158 15.359 32.561 15.1711C32.3889 14.9662 32.3889 14.8978 32.561 14.8466C32.8535 14.7441 32.8191 14.4538 32.4921 14.4538C32.3373 14.4538 32.2856 14.3684 32.3545 14.2659C32.4405 14.1293 32.3373 14.0951 32.0103 14.1464C31.7006 14.2147 31.5973 14.1805 31.7006 14.078C31.7866 13.9927 32.1824 13.8731 32.561 13.8219C33.2321 13.7365 33.2837 13.7535 33.559 14.3342C33.8 14.8466 33.8172 15.0345 33.6623 15.3931C33.4558 15.8543 32.5438 16.3325 31.9071 16.3325C31.5801 16.3325 31.5457 16.3837 31.6833 16.879C31.7522 17.1865 31.821 18.0575 31.8038 18.809C31.8038 19.9874 31.7178 20.3632 31.2703 21.3367C30.5992 22.7543 29.3086 24.0523 28.0008 24.65C25.5056 25.7943 21.7198 25.1283 19.4655 23.1641C18.5706 22.3785 17.6586 20.7048 17.5037 19.5946C17.4177 18.9456 17.3833 18.9114 17.1079 19.1506C16.6605 19.5434 15.7829 19.4751 15.3011 18.9798C14.9569 18.6553 14.8709 18.3991 14.8709 17.6988C14.8709 16.9644 14.9569 16.7595 15.4387 16.2129C16.0066 15.5981 16.0066 15.5981 16.4712 15.9055C17.1596 16.3496 18.9664 16.1959 20.1538 15.581L21.0658 15.137L20.9626 15.6493C20.7217 16.8107 22.1155 16.3667 23.9912 14.6758C25.0926 13.6852 25.5916 12.8996 25.7809 11.8919L25.8842 11.2941L25.6088 11.9773C25.0237 13.3607 23.8536 14.5904 22.0467 15.7347C21.4272 16.1275 21.324 15.9909 21.5477 15.137C21.737 14.3513 21.6165 14.283 20.8938 14.7954C19.7924 15.5639 17.6758 16.1446 17.5037 15.7176C17.4693 15.5981 17.0735 15.4444 16.6605 15.3761C15.9894 15.2736 15.8173 15.3248 15.4387 15.6664C14.2686 16.7766 14.0965 18.3137 15.0429 19.2701C15.4559 19.6629 15.6797 19.7483 16.3852 19.7483H17.2284L17.3489 20.4486C17.8479 23.4887 21.1347 25.6235 25.3679 25.6406C26.9855 25.6406 27.278 25.5894 28.1729 25.1795C29.5495 24.5305 31.0983 23.0275 31.7866 21.6441C32.3028 20.5852 32.3373 20.4144 32.3373 18.6211V16.7082L32.8879 16.5204C34.4195 15.9568 34.6087 14.078 33.1805 13.4974C32.7158 13.3095 32.5954 13.1558 32.5954 12.763C32.5954 11.6528 30.9262 9.48376 29.8937 9.22757C29.5667 9.14218 29.4979 9.0397 29.5667 8.76643C29.7904 7.86124 29.1365 7.62213 26.4348 7.58797L24.8345 7.57089L25.1098 7.17807C25.3851 6.75109 25.4539 6.42659 25.2474 6.42659C25.1614 6.44367 24.6796 6.61446 24.1633 6.83649Z" fill="#0E3C87"/>
<path id="&#209;&#128;&#209;&#131;&#208;&#186;&#208;&#176;" fill-rule="evenodd" clip-rule="evenodd" d="M15.2838 54.2652L15.7313 54.658C15.9722 54.8801 16.4024 55.1875 16.6949 55.3241C17.2972 55.6315 21.3067 56.1098 24.301 56.2464C26.0562 56.3318 26.3315 56.2976 26.8822 55.9902C27.2952 55.7682 28.0352 55.6145 28.93 55.5291C30.0657 55.4266 30.4959 55.307 31.081 54.9313C31.6317 54.5897 32.1307 54.436 33.0256 54.3506C33.6967 54.2823 34.5399 54.1457 34.9185 54.0432C35.4175 53.9236 36.0714 53.9236 37.362 54.0773C39.255 54.3165 39.6507 54.214 39.6507 53.5308C39.6507 53.0355 39.1517 52.1986 38.601 51.7204C38.102 51.3105 38.102 51.2934 38.3945 50.9689C38.6871 50.6444 38.6871 50.6103 38.2913 50.3029C37.8095 49.91 36.777 49.8759 35.9166 50.2345C35.5896 50.3712 35.2798 50.4907 35.2454 50.4907C35.1938 50.4907 35.3659 50.1833 35.624 49.8246C35.8649 49.4489 36.037 48.9707 36.0026 48.7487C35.951 48.4071 35.8477 48.3558 35.125 48.3046C34.4883 48.2704 34.1097 48.3558 33.5074 48.6803C33.0772 48.9194 32.6986 49.1244 32.6642 49.1244C32.647 49.1244 32.5954 48.8682 32.5609 48.5779C32.5265 48.1338 32.4233 47.9972 32.1135 47.963C31.5801 47.8776 30.4787 48.6462 30.0829 49.3806C29.7044 50.0979 29.6011 50.0808 27.2608 49.0219C26.366 48.6291 25.4195 48.2363 25.1614 48.185C24.0601 47.9118 24.8516 47.3994 26.452 47.3311C27.9663 47.2628 28.7063 46.9895 29.6527 46.1355C30.4443 45.4182 30.582 44.8034 30.0141 44.513C29.7904 44.3935 28.1728 44.3081 25.7465 44.291L21.8402 44.2568L19.6892 44.8204C17.4349 45.4182 17.194 45.5549 16.3852 46.6308C15.955 47.2457 15.6968 47.3823 14.1481 47.8776C12.0659 48.5608 9.55348 49.5855 9.19211 49.91C9.02003 50.0808 9.00282 50.2004 9.14048 50.337C9.26094 50.4566 9.77719 50.3199 10.9301 49.8417C12.9951 48.9707 15.1978 48.2021 15.301 48.3046C15.3527 48.3558 15.2666 48.6291 15.1118 48.9365C14.8536 49.4489 14.8536 49.5172 15.0945 49.7563C15.3355 49.9954 15.4043 49.9613 15.7657 49.3635C16.0066 48.9878 16.4368 48.2192 16.7637 47.6385C17.0735 47.0578 17.5037 46.46 17.7102 46.3234C17.9339 46.1697 19.0869 45.8281 20.2914 45.5378C22.1499 45.0937 22.8211 45.0254 24.7484 45.0254C27.7082 45.0254 29.3258 45.1791 29.2225 45.4524C29.016 45.9648 27.7254 46.443 26.1767 46.5454C24.6796 46.6479 24.6107 46.6821 24.1461 47.2457L23.6471 47.8264L22.8727 47.4506C21.909 46.9895 21.5821 46.9724 21.5821 47.3994C21.5821 47.7922 22.4941 48.2534 24.3354 48.7999C25.0409 49.0048 26.0218 49.3635 26.4864 49.6026C26.9683 49.8417 27.8459 50.2175 28.4654 50.4224L29.5839 50.8152L28.4137 51.3618C27.3985 51.8229 27.1059 51.8912 26.1767 51.8229C25.299 51.7717 24.8861 51.635 23.9052 51.0543C22.3392 50.1321 20.8077 49.6538 19.3794 49.6197C17.8135 49.5855 17.7962 49.6026 17.7962 49.9613C17.7962 50.2175 17.9855 50.2858 19.1385 50.3712C20.8593 50.5249 21.6509 50.764 23.7331 51.8571C25.4023 52.7281 25.4883 52.7452 26.5897 52.6769C27.7943 52.5915 29.4462 51.9425 30.1346 51.3105C30.3583 51.1056 30.582 50.6957 30.6336 50.3712C30.7541 49.7051 31.3047 48.9536 31.6833 48.9536C32.1135 48.9536 31.7866 50.2858 31.1154 51.2593C30.0657 52.7964 29.0849 53.7187 27.6222 54.5897C26.2283 55.4095 26.125 55.4437 24.8688 55.4437C23.6987 55.4437 20.2226 55.1363 17.8995 54.8288C16.9014 54.7093 16.2475 54.1798 15.5936 52.9672C14.9053 51.7033 14.3374 51.9595 14.7848 53.3259C14.888 53.6504 11.0748 55.3106 10.352 55.5668L11.1284 56.0805L15.2838 54.2652ZM31.3564 53.6674C31.9931 53.0868 34.0064 50.7298 34.6259 49.8417C34.8496 49.5343 35.0045 49.2098 34.9701 49.1073C34.8668 48.7828 33.3697 49.7392 32.8019 50.4907C31.8382 51.8058 30.4787 53.4625 29.8764 54.0261C29.3602 54.5385 29.343 54.5897 29.67 54.5897C30.1518 54.5897 30.6508 54.3165 31.3564 53.6674ZM33.1116 53.565C34.2129 53.565 34.9701 53.1722 36.1403 52.0108C37.2244 50.9348 37.276 50.8323 36.8802 50.8323C36.6221 50.8323 35.8305 51.2081 35.1078 51.6863C34.385 52.1474 33.7311 52.5402 33.6623 52.5402C33.5762 52.5402 33.3525 52.7623 33.146 53.0526C32.9162 53.3501 32.8198 53.4749 32.8502 53.5272C32.8721 53.565 32.9601 53.565 33.1116 53.565ZM37.7234 53.3259C38.9624 53.4625 39.0829 53.2917 38.2569 52.5231C37.9643 52.2499 37.6202 52.0278 37.5169 52.0278C37.2244 52.0278 36.3123 53.0014 36.5016 53.1038C36.5877 53.1551 37.1383 53.2575 37.7234 53.3259Z" fill="#0E3C87"/>
</g>
<g id="&#208;&#186;&#209;&#128;&#208;&#176;&#209;&#129;&#208;&#189;&#209;&#139;&#208;&#185;">
<path id="V" d="M15.5419 24.0182C15.1978 24.189 14.6643 24.633 14.3546 24.9746C13.8383 25.5724 13.8039 25.6578 13.9244 26.4776C14.0792 27.656 14.802 29.4323 16.3679 32.387C19.8096 38.9112 21.9262 41.8659 23.9052 42.8052C26.865 44.2228 29.9108 41.1656 32.647 34.0095C33.8687 30.7986 35.0045 27.007 35.0045 26.1189C35.0045 25.4016 34.9357 25.2479 34.2301 24.5818C33.4041 23.8132 32.8535 23.5741 32.1995 23.7449C31.6833 23.8645 31.5112 24.2573 30.8745 26.785C28.93 34.5219 27.1231 38.7062 25.712 38.7062C25.1097 38.7062 24.0256 37.5619 23.0103 35.854C21.5992 33.4971 19.2417 28.4929 17.9855 25.2308C17.3832 23.6424 16.8153 23.3521 15.5419 24.0182Z" fill="#9C0D13"/>
<path id="&#208;&#186;&#208;&#184;&#209;&#129;&#209;&#130;&#209;&#140;" d="M5.49233 25.9136C5.75045 26.7163 5.59558 27.4166 4.8212 28.8683C3.92637 30.5421 3.84033 31.2252 4.391 32.2158C4.75237 32.8478 5.49233 33.4114 5.97416 33.4114C6.11182 33.4114 6.45599 33.6334 6.74853 33.9237C7.05828 34.197 7.47128 34.4361 7.67778 34.4361C7.98753 34.4532 8.26286 34.7606 8.86515 35.7683C11.2227 39.6965 13.6146 43.3173 14.2685 43.9492C15.5247 45.1789 16.5917 44.8544 16.5917 43.249C16.5917 42.1559 16.3163 41.5923 14.9569 39.9014C14.3202 39.0987 13.0123 37.2542 12.0315 35.8024C10.4311 33.3943 10.2762 33.1039 10.3623 32.5062C10.3967 32.1134 10.3451 31.7547 10.2074 31.5839C10.0525 31.4131 9.96648 30.8495 9.96648 30.0126C9.96648 28.9025 9.89764 28.5951 9.50185 27.929C8.65865 26.4943 7.26478 25.555 6.00857 25.555C5.45791 25.555 5.38908 25.5891 5.49233 25.9136ZM7.38524 26.3064C8.64144 27.1262 9.70835 28.7658 9.70835 29.876C9.70835 30.6104 9.27815 31.7718 9.05444 31.6351C8.9684 31.5839 8.84794 31.3106 8.77911 31.0203C8.72748 30.7299 8.60702 30.525 8.52098 30.5762C8.45215 30.6275 8.43494 31.0032 8.50377 31.396C8.58982 31.8059 8.62423 32.1646 8.57261 32.1987C8.43494 32.3354 7.43686 31.8059 7.21315 31.4643C7.00665 31.1911 6.95503 31.174 6.95503 31.396C6.95503 31.5497 7.21315 31.8742 7.50569 32.1134L8.07357 32.5403L7.41965 32.8136C6.43878 33.2064 5.11374 32.677 4.71795 31.7035C4.44262 31.0374 4.58029 30.3371 5.33745 28.8C5.87091 27.6899 5.93974 27.3995 5.87091 26.648L5.78487 25.7599L6.36995 25.8965C6.69691 25.9819 7.14432 26.1527 7.38524 26.3064ZM9.98369 32.1475C10.1214 32.6599 9.6051 33.2747 8.64144 33.77C7.86707 34.1629 7.41965 34.1799 7.12711 33.8383C6.95503 33.6334 6.98945 33.5651 7.38524 33.4114C7.62615 33.326 7.88428 33.2406 7.95311 33.2406C8.02194 33.2406 8.41773 32.899 8.84794 32.5062C9.27815 32.0963 9.67394 31.7376 9.74277 31.7376C9.8116 31.7205 9.93206 31.8913 9.98369 32.1475ZM10.2762 34.0091C10.5688 34.419 10.5688 34.4361 10.0181 34.9485C9.29535 35.5804 9.15769 35.5804 8.60702 34.9314L8.15961 34.402L8.88236 34.0091C9.8116 33.4968 9.89764 33.4968 10.2762 34.0091ZM11.9971 36.6906C12.7198 37.7495 13.8383 39.2866 14.5095 40.1064C15.7485 41.6435 16.1442 42.5316 16.041 43.5393C15.955 44.4103 15.5075 44.3249 14.4406 43.2319C13.9244 42.7024 13.3393 41.9851 13.1672 41.6435C12.9779 41.3019 12.2208 40.1064 11.4636 38.9962L10.1041 36.9809L10.586 36.4685C10.8613 36.1782 11.085 35.8708 11.085 35.7854C11.085 35.495 10.7408 35.6317 10.4655 36.0586C10.1386 36.5539 9.91485 36.5881 9.62231 36.1953C9.43302 35.9391 9.48465 35.8195 10.0181 35.3413C10.3795 35.0339 10.672 34.7948 10.6892 34.7777C10.7064 34.7777 11.2915 35.6487 11.9971 36.6906Z" fill="#9C0D13"/>
<path id="&#208;&#186;&#208;&#176;&#209;&#128;&#208;&#176;&#208;&#189;&#208;&#180;&#208;&#176;&#209;&#136;" d="M41.8706 26.2212C41.2339 26.4603 40.6144 26.7677 40.4767 26.8872C40.339 26.9897 39.9605 27.6558 39.6507 28.3219C39.3238 29.0051 38.6354 30.3031 38.1192 31.1912C37.5857 32.0964 36.2607 34.5729 35.1766 36.7077C33.3353 40.2944 33.1632 40.5847 32.733 40.5847C32.4749 40.5847 32.1479 40.7043 31.993 40.858C31.7521 41.0971 31.7521 41.1825 31.9586 41.4899C32.1651 41.7973 32.1307 41.934 31.6145 42.6854C30.995 43.6077 30.9089 44.0176 31.3047 44.3421C31.9414 44.8716 34.2645 46.05 34.5571 46.0159C34.9873 45.9476 35.4863 45.2644 35.624 44.5471C35.7789 43.7614 35.4003 43.8468 35.1766 44.6666C34.9184 45.6231 34.6087 45.828 33.9032 45.5035C33.0427 45.0936 31.3907 44.0005 31.3907 43.8468C31.3907 43.659 32.4404 42.1218 32.5609 42.1218C32.6297 42.1218 33.3353 42.4976 34.1441 42.9758C36.1058 44.1201 36.9662 44.0859 36.863 42.8733C36.8458 42.5147 37.2588 41.6607 38.3773 39.8161C39.2377 38.3986 40.8553 35.478 41.9738 33.3261C44.0044 29.3979 44.0044 29.3979 44.0904 27.9974C44.1421 27.0922 44.0904 26.4944 43.97 26.3578C43.8323 26.187 43.8495 26.0674 43.9872 25.9308C44.3658 25.5551 43.0752 25.7259 41.8706 26.2212ZM42.4212 27.5192C42.7998 27.8437 43.2128 28.1169 43.3505 28.1169C43.7635 28.1169 43.6602 28.9367 43.1784 29.415L42.7482 29.8419L42.2147 29.4662C41.7501 29.1417 41.6985 29.0221 41.7673 28.5268C41.8878 27.8607 41.7329 27.7924 41.2855 28.2877C40.6144 29.0221 40.3046 28.5952 40.752 27.5192C41.079 26.7335 41.5608 26.7335 42.4212 27.5192ZM40.8209 29.1075L41.1823 29.0051L40.8381 29.8932C40.6488 30.3714 40.2702 31.0204 40.0293 31.3449C39.1517 32.438 38.6871 33.1553 38.188 34.2654C36.8286 37.1689 34.4882 41.2679 34.1785 41.2679C34.1097 41.2679 33.9032 41.1654 33.7311 41.0458C33.4557 40.8409 33.5418 40.6359 34.798 38.279C35.5379 36.8615 36.6737 34.7095 37.3276 33.4969C39.926 28.561 39.9605 28.5098 40.253 28.9026C40.3735 29.0904 40.5972 29.1588 40.8209 29.1075ZM42.7138 30.1664C43.058 30.1664 42.9547 30.4397 41.4748 33.3773C40.167 35.9733 38.7043 38.5864 36.6049 42.0877C36.5016 42.2755 36.3467 42.2585 35.8649 42.0194C35.5379 41.8656 35.2282 41.7119 35.1938 41.6778C35.1594 41.6436 35.4863 41.0629 35.8993 40.3798C37.3448 38.057 38.6698 35.7342 39.4098 34.2483C39.8056 33.4456 40.4939 32.2842 40.9241 31.6694C41.7673 30.4739 41.8706 30.1664 41.4576 30.1664C41.1823 30.1664 41.1306 30.0127 41.3027 29.5687C41.406 29.3296 41.4748 29.3466 41.8706 29.7224C42.1287 29.9615 42.5073 30.1664 42.7138 30.1664ZM38.9452 33.9238C38.4806 34.8632 38.0676 35.6318 38.0331 35.6318C37.9127 35.6318 39.0656 33.1211 39.4098 32.5917C39.9088 31.8402 39.7712 32.2501 38.9452 33.9238ZM33.7999 41.3533C34.0408 41.5753 34.7464 42.0023 35.3831 42.2926C36.4156 42.7708 36.536 42.8733 36.3811 43.1637C36.1058 43.6419 35.7444 43.5565 34.2301 42.6171C33.4729 42.156 32.7158 41.729 32.5609 41.6778C32.2512 41.5753 32.1479 41.0971 32.3716 40.858C32.5781 40.653 33.3353 40.9263 33.7999 41.3533Z" fill="#9C0D13"/>
<path id="&#208;&#190;&#208;&#178;&#208;&#176;&#208;&#187;_2" fill-rule="evenodd" clip-rule="evenodd" d="M8.76189 10.0301C12.3412 6.35806 16.3335 4.18901 21.0486 3.35213C23.2857 2.95931 24.9377 2.94223 27.1747 3.26674C29.8937 3.65956 31.8038 4.2744 34.1269 5.48702C41.4404 9.36399 46.775 17.3058 48.4442 26.8359C48.8916 29.3124 49.0465 34.1458 48.7883 36.6735C47.9623 44.5641 44.796 51.4128 39.6507 56.4683C33.6623 62.3776 25.5227 64.4101 17.9339 61.9165C13.4942 60.4648 9.10606 57.1173 6.0602 52.8646C3.47896 49.2779 1.39676 44.3421 0.467509 39.577C0.0545105 37.4763 0.00288565 36.8614 0.00288565 33.1552C-0.0143226 29.5857 0.0373022 28.783 0.381468 26.9555C1.67209 19.9701 4.35658 14.5731 8.76189 10.0301ZM45.209 20.9436C41.9911 12.4041 35.2798 6.23851 27.691 4.88926C26.5208 4.68431 23.5954 4.53059 22.9587 4.65015C22.8316 4.66817 22.556 4.70996 22.2229 4.76047C21.9247 4.8057 21.5803 4.85792 21.2551 4.90633C14.1997 5.94816 7.64336 11.6526 4.13287 19.7823C-0.0143225 29.4491 0.725633 41.2507 6.0602 50.0636C6.88619 51.4128 7.97031 52.8646 9.31256 54.3675L10.4139 55.5972L11.085 56.0242L11.5496 56.5024C11.8078 56.7757 12.5649 57.3564 13.236 57.8346C18.1748 61.2163 23.8535 62.2239 29.4979 60.721C34.5571 59.3717 39.6163 55.324 42.7826 50.0636C47.8763 41.6094 48.8055 30.508 45.209 20.9436Z" fill="#9C0D13"/>
</g>
</g>
<g id="&#209;&#130;&#208;&#181;&#208;&#186;&#209;&#129;&#209;&#130;">
<g id="&#208;&#186;&#209;&#128;&#208;&#176;&#209;&#129;&#208;&#189;&#209;&#139;&#208;&#185;_2">
<path id="Vector" d="M53.4899 0.308245C53.5934 0.513731 53.904 0.68497 54.1455 0.68497C54.7667 0.68497 56.3195 2.39736 56.7681 3.59603C57.3892 5.10293 57.2857 9.86338 56.63 11.3703C56.0779 12.6717 54.5941 14.0416 53.8005 14.0416C53.5244 14.0416 53.3174 14.1786 53.3174 14.3841C53.3174 14.5896 55.4913 14.7266 59.1835 14.7266C62.8757 14.7266 65.0497 14.5896 65.0497 14.3841C65.0497 14.1786 64.7736 14.0416 64.4285 14.0416C63.7384 14.0416 62.2891 12.6374 61.5645 11.3018C60.8398 9.89762 60.9779 4.89745 61.7715 3.2878C62.6342 1.57541 63.1173 1.43842 63.8764 2.5686C65.1532 4.52072 64.394 8.52771 62.5997 9.07568C61.599 9.41816 61.8405 9.93187 62.9793 9.93187C64.394 9.93187 66.3954 9.07568 67.5687 7.9455C69.6046 5.99338 69.4665 2.80833 67.2236 1.13019C65.9814 0.171253 65.9468 0.171253 59.5976 0.0685101C55.1807 1.43051e-05 53.3174 0.0685101 53.4899 0.308245Z" fill="#9C0D13"/>
<path id="Vector_2" d="M78.7033 1.01015C79.4625 2.14033 79.5315 6.18157 78.8414 8.88714C78.2202 11.4557 76.6329 13.7503 75.3562 13.9901C73.0442 14.4695 74.5625 14.812 78.9104 14.812C82.9477 14.7778 83.3962 14.7435 82.7751 14.2983C81.4639 13.3736 81.2223 13.0654 81.2223 12.4147C81.2223 11.4557 82.4301 10.3598 83.4653 10.3598C84.4314 10.3598 85.7082 11.4557 85.7082 12.2777C85.7082 12.5859 85.2251 13.2709 84.6385 13.8188L83.5688 14.812H88.2962C91.3328 14.812 92.9201 14.675 92.7821 14.4695C92.6786 14.264 92.368 14.1271 92.0919 14.1271C91.1257 14.1271 89.5384 12.3462 88.7793 10.4283C87.7786 7.75697 87.468 2.96228 88.2617 1.45538C88.5723 0.838915 88.8138 0.256702 88.8138 0.188208C88.8138 0.153959 86.3983 0.0854635 83.4653 0.0854635H78.1167L78.7033 1.01015ZM84.466 8.03095C84.2244 8.7844 82.6716 8.8529 82.361 8.09945C82.2575 7.82546 82.4646 6.62679 82.8096 5.46237L83.4307 3.37325L84.0519 5.39387C84.3969 6.4898 84.604 7.68847 84.466 8.03095Z" fill="#9C0D13"/>
<path id="Vector_3" d="M105.215 0.342278C102.8 0.821746 100.35 2.26015 99.3148 3.83555C98.4867 5.03422 98.3486 5.61644 98.3486 7.53431C98.3486 9.48644 98.5212 10.0686 99.3838 11.4728C101.42 14.7606 106.182 16.0963 109.391 14.2811C110.944 13.3907 112.565 11.2673 112.876 9.65768C113.152 8.35626 112.634 8.21927 111.979 9.41794C111.22 10.7879 109.943 11.4386 107.942 11.4043C105.871 11.4043 104.663 10.7536 103.697 9.14396C101.661 5.85617 104.387 1.54095 108.045 2.19166C109.736 2.53414 111.496 4.28077 111.806 5.92467C111.944 6.60962 112.186 7.19183 112.324 7.19183C112.703 7.19183 112.91 5.99316 113.221 2.63688L113.428 -0.000200272L110.046 0.0340471C108.149 0.0682945 105.975 0.205286 105.215 0.342278Z" fill="#9C0D13"/>
<path id="Vector_4" d="M118.535 5.00019C118.535 5.10294 118.915 5.51391 119.398 5.89063C120.433 6.71258 121.089 8.93869 120.813 10.8566C120.606 12.5347 119.743 14.0416 119.018 14.0416C118.742 14.0416 118.535 14.1786 118.535 14.3841C118.535 14.5896 119.915 14.7266 121.986 14.7266C123.884 14.7266 125.437 14.6238 125.437 14.5211C125.437 14.4183 125.091 14.0416 124.677 13.6991C123.987 13.1512 123.884 12.7402 123.884 10.6853C123.884 8.8017 124.022 8.15099 124.539 7.56878C125.402 6.60984 126.334 6.64409 127.024 7.70577C127.783 8.87019 127.576 13.2197 126.713 13.8704C126.403 14.1101 126.127 14.3841 126.127 14.5211C126.127 14.6238 127.541 14.7266 129.232 14.7266C131.061 14.7266 132.338 14.5896 132.338 14.3841C132.338 14.1786 132.165 14.0416 131.958 14.0416C131.268 14.0416 130.543 11.5415 130.751 9.79488C131.061 7.05506 132.752 5.92488 133.925 7.70577C134.684 8.87019 134.477 13.2197 133.615 13.8704C133.304 14.1101 133.028 14.3841 133.028 14.5211C133.028 14.6238 134.339 14.7266 135.961 14.7266C137.686 14.7266 138.894 14.5896 138.894 14.3841C138.894 14.1786 138.756 14.0416 138.584 14.0416C138.066 14.0416 137.514 11.9867 137.514 10.0346C137.514 8.014 136.824 5.95913 135.858 5.27417C134.96 4.58922 132.338 4.69196 131.027 5.47966L129.888 6.16462L129.163 5.47966C128.163 4.55497 125.644 4.55497 124.16 5.47966C123.021 6.16462 123.021 6.16462 123.021 5.47966C123.021 4.8632 122.779 4.79471 120.778 4.79471C119.536 4.79471 118.535 4.89745 118.535 5.00019Z" fill="#9C0D13"/>
<path id="Vector_5" d="M143.38 4.99991C143.38 5.10265 143.691 5.58212 144.07 6.06159C144.484 6.57531 144.76 7.46575 144.76 8.2192C144.76 10.5823 145.45 13.1509 146.279 13.9728C147.348 15.0688 149.936 15.103 151.351 14.0756C152.559 13.1851 152.697 13.1851 152.697 14.0413C152.697 14.6578 152.938 14.7263 155.009 14.7263H157.321L156.147 13.7331C155.009 12.8084 154.94 12.6372 154.836 10.2398C154.767 8.1507 154.871 7.5 155.423 6.57531C155.837 5.99309 156.389 5.47938 156.665 5.47938C156.941 5.47938 157.183 5.30814 157.183 5.1369C157.183 4.93141 155.802 4.79442 153.732 4.79442C151.662 4.79442 150.281 4.93141 150.281 5.1369C150.281 5.30814 150.419 5.47938 150.626 5.47938C151.731 5.47938 152.386 9.24663 151.627 11.1988C151.213 12.2947 150.73 12.6714 149.695 12.6714C148.487 12.6714 147.866 11.4042 147.866 8.97265C147.866 7.12327 148.004 6.67805 148.729 5.95885C149.212 5.47938 149.591 5.03416 149.591 4.96566C149.591 4.86292 148.211 4.79442 146.486 4.79442C144.795 4.79442 143.38 4.89717 143.38 4.99991Z" fill="#9C0D13"/>
<path id="Vector_6" d="M164.429 5.10293C164.429 5.30842 164.602 5.54816 164.774 5.6509C165.361 5.99338 165.154 9.65789 164.464 11.1305C164.119 11.9182 163.359 12.9457 162.738 13.4251C162.152 13.9389 161.669 14.4183 161.669 14.5211C161.669 14.6238 163.152 14.7266 164.947 14.7266C166.914 14.7266 168.225 14.5896 168.225 14.3841C168.225 14.1786 168.052 14.0416 167.88 14.0416C167.673 14.0416 167.362 13.6649 167.155 13.2197C166.845 12.569 166.948 11.8497 167.535 9.79488C168.397 6.91807 168.811 6.81532 169.226 9.4524L169.502 11.1305L169.743 9.76063C170.261 7.02081 170.433 6.91807 171.261 9.04143C172.159 11.3703 172.262 13.6306 171.503 13.9046C170.226 14.3841 171.227 14.7266 173.918 14.7266C175.54 14.7266 176.852 14.5896 176.852 14.4526C176.852 14.2813 176.541 13.8704 176.127 13.4936C174.298 11.8497 173.366 7.9455 174.229 5.54816C174.505 4.82895 174.436 4.7947 172.883 4.7947C171.503 4.7947 171.123 4.96594 170.261 5.85639C169.709 6.4386 169.26 6.74683 169.26 6.54134C169.26 5.5824 167.88 4.7947 166.154 4.7947C165.223 4.7947 164.429 4.9317 164.429 5.10293Z" fill="#9C0D13"/>
</g>
<g id="&#209;&#129;&#208;&#184;&#208;&#189;&#208;&#184;&#208;&#185;_2">
<path id="Vector_7" d="M72.3996 18.8022C68.0862 21.9187 63.9799 31.1656 61.4264 43.5633C60.9778 45.7894 60.5292 47.7073 60.4257 47.8786C60.3222 48.0156 59.5631 48.5293 58.6659 48.9745C57.8032 49.4197 56.768 50.3102 56.3539 50.9609C53.904 54.9336 58.4588 64.0435 62.7032 63.6325C63.5658 63.564 63.9109 63.3243 64.1524 62.6394C64.394 61.8859 64.256 61.4064 63.1863 59.7283C62.4961 58.5981 61.944 57.6049 61.944 57.4679C61.944 57.3309 62.4271 56.9885 63.0482 56.7145C63.9454 56.235 65.9123 56.1665 76.1608 56.1665C83.9938 56.1665 88.1691 56.2693 88.1691 56.509C88.1691 56.7145 87.7205 57.5022 87.1339 58.2899C86.5818 59.0433 86.0987 59.968 86.0987 60.3105C86.0987 61.2694 87.0649 61.9886 88.3762 61.9886C89.3079 61.9886 89.86 61.6804 91.0332 60.516C92.793 58.8036 94.5874 55.3788 94.9325 53.2212C95.3465 50.3102 93.4142 47.2621 91.1712 47.2621C90.3776 47.2621 90.274 47.0909 90.067 45.6182C89.1698 38.9399 85.9607 28.8368 83.0966 23.7681C81.9234 21.679 79.4389 19.0077 78.0242 18.357C76.1608 17.4665 74.0214 17.6378 72.3996 18.8022ZM74.1249 34.1452C75.4016 35.5836 79.5079 45.7552 79.5424 47.6046C79.5424 48.0498 78.9903 48.084 75.3326 47.8443C72.9862 47.7073 70.4327 47.6046 69.639 47.6731C68.8109 47.7416 68.1552 47.6731 68.1552 47.5703C68.1552 46.8854 69.9841 38.6317 70.3982 37.3302C71.5369 33.9397 72.8827 32.8095 74.1249 34.1452Z" fill="#0E3C87"/>
<path id="Vector_8" d="M133.476 19.4871C130.957 20.7885 129.129 22.6722 127.921 25.3093C127.093 27.0216 127.024 27.6723 126.989 31.4054C126.989 34.7959 126.851 35.6863 126.403 36.2C126.057 36.5425 125.367 37.7412 124.85 38.8714C123.953 40.755 123.884 41.2687 123.884 44.8647C123.884 49.2827 124.298 50.4471 126.748 53.1527C128.68 55.2761 130.888 56.1665 134.236 56.1665C137.514 56.1665 139.722 55.3103 141.724 53.2212C143.794 51.0636 144.553 48.9745 144.519 45.6182C144.415 39.9673 143.276 37.1932 141.171 37.3987C140.102 37.5015 140.102 37.5015 139.929 39.8988C139.619 43.8716 138.445 45.2072 135.236 45.2072C133.89 45.2072 133.476 45.036 132.476 44.0428C131.406 42.9811 131.302 42.6729 131.302 40.9605C131.302 37.0905 133.235 35.6863 137.065 36.7138C139.377 37.3645 139.929 37.2275 139.929 35.9946C139.929 34.9329 138.894 33.8027 137.341 33.2205C136.237 32.7753 132.855 32.6725 131.717 33.015C131.095 33.2205 131.061 33.152 131.372 31.4396C131.889 28.3916 131.958 28.2203 132.855 27.8093C134.305 27.1244 135.926 27.3299 138.376 28.46C140.516 29.4875 140.757 29.5217 142.103 29.1108C144.208 28.4943 146.969 25.5832 147.659 23.2544C148.383 20.857 148.349 19.7611 147.521 19.0077C147.003 18.5282 146.589 18.4597 145.554 18.6652C143.932 19.0077 142.31 19.0077 138.549 18.6994C135.719 18.4254 135.547 18.4597 133.476 19.4871Z" fill="#0E3C87"/>
<path id="Vector_9" d="M105.526 31.0629C101.903 32.33 98.7973 36.6795 98.2106 41.2687C97.1409 49.9677 101.868 56.1665 109.563 56.1665C112.841 56.1665 115.188 55.2418 117.224 53.1869C119.191 51.1663 120.088 49.4197 120.606 46.6114C121.503 41.6112 119.536 35.2754 117.051 35.2754C115.74 35.2754 115.36 36.0288 115.602 38.0837C115.982 41.0632 114.739 43.1866 112.255 43.8373C107.217 45.2072 104.077 38.9741 107.873 35.1726C108.839 34.2137 109.011 34.1794 110.875 34.4192C111.944 34.5219 113.463 34.6589 114.222 34.6931C115.499 34.7616 115.602 34.6931 115.706 33.8027C115.844 32.604 115.291 31.9191 113.532 31.1314C111.806 30.3437 107.631 30.3094 105.526 31.0629Z" fill="#0E3C87"/>
<path id="Vector_10" d="M153.145 31.0285C152.421 31.371 151.765 32.1587 151.247 33.1861C150.523 34.6245 150.454 35.2067 150.488 39.8987C150.523 47.9811 152.11 62.2967 153.214 64.3858C154.319 66.5092 155.733 66.5434 156.803 64.4543C157.459 63.1872 158.321 58.6665 158.77 54.3512C158.873 53.0841 159.081 52.0566 159.219 52.0566C159.322 52.0909 159.84 52.6731 160.323 53.3923C162.255 56.1664 166.741 57.0226 170.226 55.2759C173.194 53.8033 174.85 50.9265 175.54 46.166C176.748 37.7068 172.435 30.4805 166.12 30.4805C164.291 30.4805 161.427 32.0559 160.357 33.6313L159.46 35.0012L158.666 33.2546C158.08 31.8847 157.631 31.371 156.7 30.9942C155.181 30.3435 154.526 30.3435 153.145 31.0285ZM166.396 41.6111C167.673 42.4673 168.294 43.7002 168.294 45.4811C168.294 49.4881 165.637 51.2347 161.669 49.8305C160.495 49.4196 160.081 49.3853 159.667 49.7278C158.908 50.3785 159.46 43.5974 160.254 42.6727C161.772 40.9261 164.602 40.4466 166.396 41.6111Z" fill="#0E3C87"/>
<path id="Vector_11" d="M188.342 30.9944C184.684 32.1245 181.268 35.2068 179.888 38.6316C179.267 40.207 179.129 41.2687 179.094 44.0085C179.094 47.0223 179.232 47.673 180.026 49.3854C181.337 52.228 183.753 54.6253 186.134 55.5158C190.102 56.9884 195.14 55.7555 197.59 52.7075C199.695 50.0361 200.73 46.1661 199.419 45.6524C199.108 45.5497 197.935 45.8921 196.796 46.4401C194.001 47.7758 190.792 47.8443 188.825 46.6114C185.237 44.4195 185.133 37.7412 188.653 35.1726C189.446 34.5904 189.722 34.5219 190.482 34.8644C192.414 35.7548 192.207 37.9809 189.964 40.6865C188.342 42.6386 188.687 43.666 191.068 44.0428C193.725 44.488 197.314 42.5359 198.556 39.9673C199.35 38.3576 199.488 36.2 198.901 34.6931C197.624 31.3368 192.725 29.6245 188.342 30.9944Z" fill="#0E3C87"/>
</g>
</g>
</g>
</g>
<defs>
<clipPath id="clip0_727_347">
<rect width="200" height="66" rx="10" fill="white"/>
</clipPath>
</defs>
</svg>
